TITLE ""
FILE "TOEIC LR Kinnojyukugo_04.mp3" MP3
  TRACK 01 AUDIO
    TITLE "TOEIC LR Kinnojyukugo_04_0001"
    INDEX 01 00:00:00
  TRACK 02 AUDIO
    TITLE "TOEIC LR Kinnojyukugo_04_0002"
    INDEX 01 00:00:16
  TRACK 03 AUDIO
    TITLE "TOEIC LR Kinnojyukugo_04_0003"
    INDEX 01 00:01:35
  TRACK 04 AUDIO
    TITLE "TOEIC LR Kinnojyukugo_04_0004"
    INDEX 01 00:01:74
  TRACK 05 AUDIO
    TITLE "TOEIC LR Kinnojyukugo_04_0005"
    INDEX 01 00:03:30
  TRACK 06 AUDIO
    TITLE "TOEIC LR Kinnojyukugo_04_0006"
    INDEX 01 00:03:62
  TRACK 07 AUDIO
    TITLE "TOEIC LR Kinnojyukugo_04_0007"
    INDEX 01 00:06:13
  TRACK 08 AUDIO
    TITLE "TOEIC LR Kinnojyukugo_04_0008"
    INDEX 01 00:06:50
  TRACK 09 AUDIO
    TITLE "TOEIC LR Kinnojyukugo_04_0009"
    INDEX 01 00:09:01
  TRACK 10 AUDIO
    TITLE "TOEIC LR Kinnojyukugo_04_0010"
    INDEX 01 00:09:25
  TRACK 11 AUDIO
    TITLE "TOEIC LR Kinnojyukugo_04_0011"
    INDEX 01 00:11:51
  TRACK 12 AUDIO
    TITLE "TOEIC LR Kinnojyukugo_04_0012"
    INDEX 01 00:12:51
  TRACK 13 AUDIO
    TITLE "TOEIC LR Kinnojyukugo_04_0013"
    INDEX 01 00:14:03
  TRACK 14 AUDIO
    TITLE "TOEIC LR Kinnojyukugo_04_0014"
    INDEX 01 00:14:42
  TRACK 15 AUDIO
    TITLE "TOEIC LR Kinnojyukugo_04_0015"
    INDEX 01 00:15:53
  TRACK 16 AUDIO
    TITLE "TOEIC LR Kinnojyukugo_04_0016"
    INDEX 01 00:16:15
  TRACK 17 AUDIO
    TITLE "TOEIC LR Kinnojyukugo_04_0017"
    INDEX 01 00:18:24
  TRACK 18 AUDIO
    TITLE "TOEIC LR Kinnojyukugo_04_0018"
    INDEX 01 00:18:63
  TRACK 19 AUDIO
    TITLE "TOEIC LR Kinnojyukugo_04_0019"
    INDEX 01 00:20:60
  TRACK 20 AUDIO
    TITLE "TOEIC LR Kinnojyukugo_04_0020"
    INDEX 01 00:21:10
  TRACK 21 AUDIO
    TITLE "TOEIC LR Kinnojyukugo_04_0021"
    INDEX 01 00:23:07
  TRACK 22 AUDIO
    TITLE "TOEIC LR Kinnojyukugo_04_0022"
    INDEX 01 00:24:07
  TRACK 23 AUDIO
    TITLE "TOEIC LR Kinnojyukugo_04_0023"
    INDEX 01 00:25:24
  TRACK 24 AUDIO
    TITLE "TOEIC LR Kinnojyukugo_04_0024"
    INDEX 01 00:25:59
  TRACK 25 AUDIO
    TITLE "TOEIC LR Kinnojyukugo_04_0025"
    INDEX 01 00:28:14
  TRACK 26 AUDIO
    TITLE "TOEIC LR Kinnojyukugo_04_0026"
    INDEX 01 00:28:54
  TRACK 27 AUDIO
    TITLE "TOEIC LR Kinnojyukugo_04_0027"
    INDEX 01 00:31:62
  TRACK 28 AUDIO
    TITLE "TOEIC LR Kinnojyukugo_04_0028"
    INDEX 01 00:32:36
  TRACK 29 AUDIO
    TITLE "TOEIC LR Kinnojyukugo_04_0029"
    INDEX 01 00:36:02
  TRACK 30 AUDIO
    TITLE "TOEIC LR Kinnojyukugo_04_0030"
    INDEX 01 00:36:28
  TRACK 31 AUDIO
    TITLE "TOEIC LR Kinnojyukugo_04_0031"
    INDEX 01 00:39:69
  TRACK 32 AUDIO
    TITLE "TOEIC LR Kinnojyukugo_04_0032"
    INDEX 01 00:40:71
  TRACK 33 AUDIO
    TITLE "TOEIC LR Kinnojyukugo_04_0033"
    INDEX 01 00:42:28
  TRACK 34 AUDIO
    TITLE "TOEIC LR Kinnojyukugo_04_0034"
    INDEX 01 00:42:66
  TRACK 35 AUDIO
    TITLE "TOEIC LR Kinnojyukugo_04_0035"
    INDEX 01 00:43:71
  TRACK 36 AUDIO
    TITLE "TOEIC LR Kinnojyukugo_04_0036"
    INDEX 01 00:44:39
  TRACK 37 AUDIO
    TITLE "TOEIC LR Kinnojyukugo_04_0037"
    INDEX 01 00:46:32
  TRACK 38 AUDIO
    TITLE "TOEIC LR Kinnojyukugo_04_0038"
    INDEX 01 00:46:75
  TRACK 39 AUDIO
    TITLE "TOEIC LR Kinnojyukugo_04_0039"
    INDEX 01 00:48:52
  TRACK 40 AUDIO
    TITLE "TOEIC LR Kinnojyukugo_04_0040"
    INDEX 01 00:49:05
  TRACK 41 AUDIO
    TITLE "TOEIC LR Kinnojyukugo_04_0041"
    INDEX 01 00:50:57
  TRACK 42 AUDIO
    TITLE "TOEIC LR Kinnojyukugo_04_0042"
    INDEX 01 00:51:59
  TRACK 43 AUDIO
    TITLE "TOEIC LR Kinnojyukugo_04_0043"
    INDEX 01 00:53:01
  TRACK 44 AUDIO
    TITLE "TOEIC LR Kinnojyukugo_04_0044"
    INDEX 01 00:53:38
  TRACK 45 AUDIO
    TITLE "TOEIC LR Kinnojyukugo_04_0045"
    INDEX 01 00:55:15
  TRACK 46 AUDIO
    TITLE "TOEIC LR Kinnojyukugo_04_0046"
    INDEX 01 00:55:56
  TRACK 47 AUDIO
    TITLE "TOEIC LR Kinnojyukugo_04_0047"
    INDEX 01 00:59:19
  TRACK 48 AUDIO
    TITLE "TOEIC LR Kinnojyukugo_04_0048"
    INDEX 01 00:59:58
  TRACK 49 AUDIO
    TITLE "TOEIC LR Kinnojyukugo_04_0049"
    INDEX 01 01:02:29
  TRACK 50 AUDIO
    TITLE "TOEIC LR Kinnojyukugo_04_0050"
    INDEX 01 01:02:58
  TRACK 51 AUDIO
    TITLE "TOEIC LR Kinnojyukugo_04_0051"
    INDEX 01 01:05:31
  TRACK 52 AUDIO
    TITLE "TOEIC LR Kinnojyukugo_04_0052"
    INDEX 01 01:06:33
  TRACK 53 AUDIO
    TITLE "TOEIC LR Kinnojyukugo_04_0053"
    INDEX 01 01:07:56
  TRACK 54 AUDIO
    TITLE "TOEIC LR Kinnojyukugo_04_0054"
    INDEX 01 01:08:18
  TRACK 55 AUDIO
    TITLE "TOEIC LR Kinnojyukugo_04_0055"
    INDEX 01 01:09:41
  TRACK 56 AUDIO
    TITLE "TOEIC LR Kinnojyukugo_04_0056"
    INDEX 01 01:10:07
  TRACK 57 AUDIO
    TITLE "TOEIC LR Kinnojyukugo_04_0057"
    INDEX 01 01:12:24
  TRACK 58 AUDIO
    TITLE "TOEIC LR Kinnojyukugo_04_0058"
    INDEX 01 01:12:63
  TRACK 59 AUDIO
    TITLE "TOEIC LR Kinnojyukugo_04_0059"
    INDEX 01 01:15:18
  TRACK 60 AUDIO
    TITLE "TOEIC LR Kinnojyukugo_04_0060"
    INDEX 01 01:15:45
  TRACK 61 AUDIO
    TITLE "TOEIC LR Kinnojyukugo_04_0061"
    INDEX 01 01:18:01
  TRACK 62 AUDIO
    TITLE "TOEIC LR Kinnojyukugo_04_0062"
    INDEX 01 01:19:02
  TRACK 63 AUDIO
    TITLE "TOEIC LR Kinnojyukugo_04_0063"
    INDEX 01 01:21:54
  TRACK 64 AUDIO
    TITLE "TOEIC LR Kinnojyukugo_04_0064"
    INDEX 01 01:22:24
  TRACK 65 AUDIO
    TITLE "TOEIC LR Kinnojyukugo_04_0065"
    INDEX 01 01:23:63
  TRACK 66 AUDIO
    TITLE "TOEIC LR Kinnojyukugo_04_0066"
    INDEX 01 01:24:25
  TRACK 67 AUDIO
    TITLE "TOEIC LR Kinnojyukugo_04_0067"
    INDEX 01 01:27:29
  TRACK 68 AUDIO
    TITLE "TOEIC LR Kinnojyukugo_04_0068"
    INDEX 01 01:27:68
  TRACK 69 AUDIO
    TITLE "TOEIC LR Kinnojyukugo_04_0069"
    INDEX 01 01:30:45
  TRACK 70 AUDIO
    TITLE "TOEIC LR Kinnojyukugo_04_0070"
    INDEX 01 01:30:70
  TRACK 71 AUDIO
    TITLE "TOEIC LR Kinnojyukugo_04_0071"
    INDEX 01 01:33:47
  TRACK 72 AUDIO
    TITLE "TOEIC LR Kinnojyukugo_04_0072"
    INDEX 01 01:34:47
  TRACK 73 AUDIO
    TITLE "TOEIC LR Kinnojyukugo_04_0073"
    INDEX 01 01:35:68
  TRACK 74 AUDIO
    TITLE "TOEIC LR Kinnojyukugo_04_0074"
    INDEX 01 01:36:40
  TRACK 75 AUDIO
    TITLE "TOEIC LR Kinnojyukugo_04_0075"
    INDEX 01 01:39:30
  TRACK 76 AUDIO
    TITLE "TOEIC LR Kinnojyukugo_04_0076"
    INDEX 01 01:39:69
  TRACK 77 AUDIO
    TITLE "TOEIC LR Kinnojyukugo_04_0077"
    INDEX 01 01:41:70
  TRACK 78 AUDIO
    TITLE "TOEIC LR Kinnojyukugo_04_0078"
    INDEX 01 01:42:34
  TRACK 79 AUDIO
    TITLE "TOEIC LR Kinnojyukugo_04_0079"
    INDEX 01 01:44:69
  TRACK 80 AUDIO
    TITLE "TOEIC LR Kinnojyukugo_04_0080"
    INDEX 01 01:45:17
  TRACK 81 AUDIO
    TITLE "TOEIC LR Kinnojyukugo_04_0081"
    INDEX 01 01:47:49
  TRACK 82 AUDIO
    TITLE "TOEIC LR Kinnojyukugo_04_0082"
    INDEX 01 01:48:51
  TRACK 83 AUDIO
    TITLE "TOEIC LR Kinnojyukugo_04_0083"
    INDEX 01 01:50:12
  TRACK 84 AUDIO
    TITLE "TOEIC LR Kinnojyukugo_04_0084"
    INDEX 01 01:50:50
  TRACK 85 AUDIO
    TITLE "TOEIC LR Kinnojyukugo_04_0085"
    INDEX 01 01:52:21
  TRACK 86 AUDIO
    TITLE "TOEIC LR Kinnojyukugo_04_0086"
    INDEX 01 01:52:68
  TRACK 87 AUDIO
    TITLE "TOEIC LR Kinnojyukugo_04_0087"
    INDEX 01 01:55:25
  TRACK 88 AUDIO
    TITLE "TOEIC LR Kinnojyukugo_04_0088"
    INDEX 01 01:55:63
  TRACK 89 AUDIO
    TITLE "TOEIC LR Kinnojyukugo_04_0089"
    INDEX 01 01:57:40
  TRACK 90 AUDIO
    TITLE "TOEIC LR Kinnojyukugo_04_0090"
    INDEX 01 01:57:65
  TRACK 91 AUDIO
    TITLE "TOEIC LR Kinnojyukugo_04_0091"
    INDEX 01 01:59:43
  TRACK 92 AUDIO
    TITLE "TOEIC LR Kinnojyukugo_04_0092"
    INDEX 01 02:00:42
  TRACK 93 AUDIO
    TITLE "TOEIC LR Kinnojyukugo_04_0093"
    INDEX 01 02:01:67
  TRACK 94 AUDIO
    TITLE "TOEIC LR Kinnojyukugo_04_0094"
    INDEX 01 02:02:27
  TRACK 95 AUDIO
    TITLE "TOEIC LR Kinnojyukugo_04_0095"
    INDEX 01 02:03:29
  TRACK 96 AUDIO
    TITLE "TOEIC LR Kinnojyukugo_04_0096"
    INDEX 01 02:03:66
  TRACK 97 AUDIO
    TITLE "TOEIC LR Kinnojyukugo_04_0097"
    INDEX 01 02:07:03
  TRACK 98 AUDIO
    TITLE "TOEIC LR Kinnojyukugo_04_0098"
    INDEX 01 02:07:42
  TRACK 99 AUDIO
    TITLE "TOEIC LR Kinnojyukugo_04_0099"
    INDEX 01 02:10:03
  TRACK 100 AUDIO
    TITLE "TOEIC LR Kinnojyukugo_04_0100"
    INDEX 01 02:10:33
  TRACK 101 AUDIO
    TITLE "TOEIC LR Kinnojyukugo_04_0101"
    INDEX 01 02:12:69
  TRACK 102 AUDIO
    TITLE "TOEIC LR Kinnojyukugo_04_0102"
    INDEX 01 02:13:72
  TRACK 103 AUDIO
    TITLE "TOEIC LR Kinnojyukugo_04_0103"
    INDEX 01 02:15:22
  TRACK 104 AUDIO
    TITLE "TOEIC LR Kinnojyukugo_04_0104"
    INDEX 01 02:15:57
  TRACK 105 AUDIO
    TITLE "TOEIC LR Kinnojyukugo_04_0105"
    INDEX 01 02:18:73
  TRACK 106 AUDIO
    TITLE "TOEIC LR Kinnojyukugo_04_0106"
    INDEX 01 02:19:40
  TRACK 107 AUDIO
    TITLE "TOEIC LR Kinnojyukugo_04_0107"
    INDEX 01 02:21:34
  TRACK 108 AUDIO
    TITLE "TOEIC LR Kinnojyukugo_04_0108"
    INDEX 01 02:21:72
  TRACK 109 AUDIO
    TITLE "TOEIC LR Kinnojyukugo_04_0109"
    INDEX 01 02:23:35
  TRACK 110 AUDIO
    TITLE "TOEIC LR Kinnojyukugo_04_0110"
    INDEX 01 02:23:59
  TRACK 111 AUDIO
    TITLE "TOEIC LR Kinnojyukugo_04_0111"
    INDEX 01 02:25:22
  TRACK 112 AUDIO
    TITLE "TOEIC LR Kinnojyukugo_04_0112"
    INDEX 01 02:26:22
  TRACK 113 AUDIO
    TITLE "TOEIC LR Kinnojyukugo_04_0113"
    INDEX 01 02:27:43
  TRACK 114 AUDIO
    TITLE "TOEIC LR Kinnojyukugo_04_0114"
    INDEX 01 02:28:05
  TRACK 115 AUDIO
    TITLE "TOEIC LR Kinnojyukugo_04_0115"
    INDEX 01 02:30:63
  TRACK 116 AUDIO
    TITLE "TOEIC LR Kinnojyukugo_04_0116"
    INDEX 01 02:31:23
  TRACK 117 AUDIO
    TITLE "TOEIC LR Kinnojyukugo_04_0117"
    INDEX 01 02:34:21
  TRACK 118 AUDIO
    TITLE "TOEIC LR Kinnojyukugo_04_0118"
    INDEX 01 02:34:63
  TRACK 119 AUDIO
    TITLE "TOEIC LR Kinnojyukugo_04_0119"
    INDEX 01 02:37:49
  TRACK 120 AUDIO
    TITLE "TOEIC LR Kinnojyukugo_04_0120"
    INDEX 01 02:38:04
  TRACK 121 AUDIO
    TITLE "TOEIC LR Kinnojyukugo_04_0121"
    INDEX 01 02:40:63
  TRACK 122 AUDIO
    TITLE "TOEIC LR Kinnojyukugo_04_0122"
    INDEX 01 02:41:63
  TRACK 123 AUDIO
    TITLE "TOEIC LR Kinnojyukugo_04_0123"
    INDEX 01 02:43:24
  TRACK 124 AUDIO
    TITLE "TOEIC LR Kinnojyukugo_04_0124"
    INDEX 01 02:43:62
  TRACK 125 AUDIO
    TITLE "TOEIC LR Kinnojyukugo_04_0125"
    INDEX 01 02:45:06
  TRACK 126 AUDIO
    TITLE "TOEIC LR Kinnojyukugo_04_0126"
    INDEX 01 02:45:49
  TRACK 127 AUDIO
    TITLE "TOEIC LR Kinnojyukugo_04_0127"
    INDEX 01 02:47:61
  TRACK 128 AUDIO
    TITLE "TOEIC LR Kinnojyukugo_04_0128"
    INDEX 01 02:48:25
  TRACK 129 AUDIO
    TITLE "TOEIC LR Kinnojyukugo_04_0129"
    INDEX 01 02:50:56
  TRACK 130 AUDIO
    TITLE "TOEIC LR Kinnojyukugo_04_0130"
    INDEX 01 02:51:04
  TRACK 131 AUDIO
    TITLE "TOEIC LR Kinnojyukugo_04_0131"
    INDEX 01 02:53:36
  TRACK 132 AUDIO
    TITLE "TOEIC LR Kinnojyukugo_04_0132"
    INDEX 01 02:54:36
  TRACK 133 AUDIO
    TITLE "TOEIC LR Kinnojyukugo_04_0133"
    INDEX 01 02:55:49
  TRACK 134 AUDIO
    TITLE "TOEIC LR Kinnojyukugo_04_0134"
    INDEX 01 02:56:21
  TRACK 135 AUDIO
    TITLE "TOEIC LR Kinnojyukugo_04_0135"
    INDEX 01 02:57:44
  TRACK 136 AUDIO
    TITLE "TOEIC LR Kinnojyukugo_04_0136"
    INDEX 01 02:58:08
  TRACK 137 AUDIO
    TITLE "TOEIC LR Kinnojyukugo_04_0137"
    INDEX 01 02:59:51
  TRACK 138 AUDIO
    TITLE "TOEIC LR Kinnojyukugo_04_0138"
    INDEX 01 03:00:15
  TRACK 139 AUDIO
    TITLE "TOEIC LR Kinnojyukugo_04_0139"
    INDEX 01 03:01:75
  TRACK 140 AUDIO
    TITLE "TOEIC LR Kinnojyukugo_04_0140"
    INDEX 01 03:02:26
  TRACK 141 AUDIO
    TITLE "TOEIC LR Kinnojyukugo_04_0141"
    INDEX 01 03:04:11
  TRACK 142 AUDIO
    TITLE "TOEIC LR Kinnojyukugo_04_0142"
    INDEX 01 03:05:10
  TRACK 143 AUDIO
    TITLE "TOEIC LR Kinnojyukugo_04_0143"
    INDEX 01 03:06:61
  TRACK 144 AUDIO
    TITLE "TOEIC LR Kinnojyukugo_04_0144"
    INDEX 01 03:07:25
  TRACK 145 AUDIO
    TITLE "TOEIC LR Kinnojyukugo_04_0145"
    INDEX 01 03:08:69
  TRACK 146 AUDIO
    TITLE "TOEIC LR Kinnojyukugo_04_0146"
    INDEX 01 03:09:37
  TRACK 147 AUDIO
    TITLE "TOEIC LR Kinnojyukugo_04_0147"
    INDEX 01 03:12:04
  TRACK 148 AUDIO
    TITLE "TOEIC LR Kinnojyukugo_04_0148"
    INDEX 01 03:12:42
  TRACK 149 AUDIO
    TITLE "TOEIC LR Kinnojyukugo_04_0149"
    INDEX 01 03:15:01
  TRACK 150 AUDIO
    TITLE "TOEIC LR Kinnojyukugo_04_0150"
    INDEX 01 03:15:24
  TRACK 151 AUDIO
    TITLE "TOEIC LR Kinnojyukugo_04_0151"
    INDEX 01 03:17:58
  TRACK 152 AUDIO
    TITLE "TOEIC LR Kinnojyukugo_04_0152"
    INDEX 01 03:18:58
  TRACK 153 AUDIO
    TITLE "TOEIC LR Kinnojyukugo_04_0153"
    INDEX 01 03:20:31
  TRACK 154 AUDIO
    TITLE "TOEIC LR Kinnojyukugo_04_0154"
    INDEX 01 03:20:63
  TRACK 155 AUDIO
    TITLE "TOEIC LR Kinnojyukugo_04_0155"
    INDEX 01 03:24:47
  TRACK 156 AUDIO
    TITLE "TOEIC LR Kinnojyukugo_04_0156"
    INDEX 01 03:25:07
  TRACK 157 AUDIO
    TITLE "TOEIC LR Kinnojyukugo_04_0157"
    INDEX 01 03:29:17
  TRACK 158 AUDIO
    TITLE "TOEIC LR Kinnojyukugo_04_0158"
    INDEX 01 03:29:56
  TRACK 159 AUDIO
    TITLE "TOEIC LR Kinnojyukugo_04_0159"
    INDEX 01 03:33:01
  TRACK 160 AUDIO
    TITLE "TOEIC LR Kinnojyukugo_04_0160"
    INDEX 01 03:33:28
  TRACK 161 AUDIO
    TITLE "TOEIC LR Kinnojyukugo_04_0161"
    INDEX 01 03:36:50
  TRACK 162 AUDIO
    TITLE "TOEIC LR Kinnojyukugo_04_0162"
    INDEX 01 03:37:53
  TRACK 163 AUDIO
    TITLE "TOEIC LR Kinnojyukugo_04_0163"
    INDEX 01 03:38:66
  TRACK 164 AUDIO
    TITLE "TOEIC LR Kinnojyukugo_04_0164"
    INDEX 01 03:39:27
  TRACK 165 AUDIO
    TITLE "TOEIC LR Kinnojyukugo_04_0165"
    INDEX 01 03:42:43
  TRACK 166 AUDIO
    TITLE "TOEIC LR Kinnojyukugo_04_0166"
    INDEX 01 03:43:07
  TRACK 167 AUDIO
    TITLE "TOEIC LR Kinnojyukugo_04_0167"
    INDEX 01 03:45:39
  TRACK 168 AUDIO
    TITLE "TOEIC LR Kinnojyukugo_04_0168"
    INDEX 01 03:46:07
  TRACK 169 AUDIO
    TITLE "TOEIC LR Kinnojyukugo_04_0169"
    INDEX 01 03:48:32
  TRACK 170 AUDIO
    TITLE "TOEIC LR Kinnojyukugo_04_0170"
    INDEX 01 03:48:57
  TRACK 171 AUDIO
    TITLE "TOEIC LR Kinnojyukugo_04_0171"
    INDEX 01 03:51:06
  TRACK 172 AUDIO
    TITLE "TOEIC LR Kinnojyukugo_04_0172"
    INDEX 01 03:52:08
  TRACK 173 AUDIO
    TITLE "TOEIC LR Kinnojyukugo_04_0173"
    INDEX 01 03:53:23
  TRACK 174 AUDIO
    TITLE "TOEIC LR Kinnojyukugo_04_0174"
    INDEX 01 03:53:62
  TRACK 175 AUDIO
    TITLE "TOEIC LR Kinnojyukugo_04_0175"
    INDEX 01 03:55:26
  TRACK 176 AUDIO
    TITLE "TOEIC LR Kinnojyukugo_04_0176"
    INDEX 01 03:55:63
  TRACK 177 AUDIO
    TITLE "TOEIC LR Kinnojyukugo_04_0177"
    INDEX 01 03:58:12
  TRACK 178 AUDIO
    TITLE "TOEIC LR Kinnojyukugo_04_0178"
    INDEX 01 03:58:50
  TRACK 179 AUDIO
    TITLE "TOEIC LR Kinnojyukugo_04_0179"
    INDEX 01 04:01:03
  TRACK 180 AUDIO
    TITLE "TOEIC LR Kinnojyukugo_04_0180"
    INDEX 01 04:01:28
  TRACK 181 AUDIO
    TITLE "TOEIC LR Kinnojyukugo_04_0181"
    INDEX 01 04:03:55
  TRACK 182 AUDIO
    TITLE "TOEIC LR Kinnojyukugo_04_0182"
    INDEX 01 04:04:54
  TRACK 183 AUDIO
    TITLE "TOEIC LR Kinnojyukugo_04_0183"
    INDEX 01 04:05:71
  TRACK 184 AUDIO
    TITLE "TOEIC LR Kinnojyukugo_04_0184"
    INDEX 01 04:06:37
  TRACK 185 AUDIO
    TITLE "TOEIC LR Kinnojyukugo_04_0185"
    INDEX 01 04:07:47
  TRACK 186 AUDIO
    TITLE "TOEIC LR Kinnojyukugo_04_0186"
    INDEX 01 04:08:11
  TRACK 187 AUDIO
    TITLE "TOEIC LR Kinnojyukugo_04_0187"
    INDEX 01 04:10:04
  TRACK 188 AUDIO
    TITLE "TOEIC LR Kinnojyukugo_04_0188"
    INDEX 01 04:10:39
  TRACK 189 AUDIO
    TITLE "TOEIC LR Kinnojyukugo_04_0189"
    INDEX 01 04:12:71
  TRACK 190 AUDIO
    TITLE "TOEIC LR Kinnojyukugo_04_0190"
    INDEX 01 04:13:20
  TRACK 191 AUDIO
    TITLE "TOEIC LR Kinnojyukugo_04_0191"
    INDEX 01 04:15:52
  TRACK 192 AUDIO
    TITLE "TOEIC LR Kinnojyukugo_04_0192"
    INDEX 01 04:16:49
  TRACK 193 AUDIO
    TITLE "TOEIC LR Kinnojyukugo_04_0193"
    INDEX 01 04:18:11
  TRACK 194 AUDIO
    TITLE "TOEIC LR Kinnojyukugo_04_0194"
    INDEX 01 04:18:50
  TRACK 195 AUDIO
    TITLE "TOEIC LR Kinnojyukugo_04_0195"
    INDEX 01 04:21:25
  TRACK 196 AUDIO
    TITLE "TOEIC LR Kinnojyukugo_04_0196"
    INDEX 01 04:21:64
  TRACK 197 AUDIO
    TITLE "TOEIC LR Kinnojyukugo_04_0197"
    INDEX 01 04:24:22
  TRACK 198 AUDIO
    TITLE "TOEIC LR Kinnojyukugo_04_0198"
    INDEX 01 04:24:61
  TRACK 199 AUDIO
    TITLE "TOEIC LR Kinnojyukugo_04_0199"
    INDEX 01 04:27:39
  TRACK 200 AUDIO
    TITLE "TOEIC LR Kinnojyukugo_04_0200"
    INDEX 01 04:27:65
  TRACK 201 AUDIO
    TITLE "TOEIC LR Kinnojyukugo_04_0201"
    INDEX 01 04:30:44
  TRACK 202 AUDIO
    TITLE "TOEIC LR Kinnojyukugo_04_0202"
    INDEX 01 04:31:45
  TRACK 203 AUDIO
    TITLE "TOEIC LR Kinnojyukugo_04_0203"
    INDEX 01 04:33:03
  TRACK 204 AUDIO
    TITLE "TOEIC LR Kinnojyukugo_04_0204"
    INDEX 01 04:33:38
  TRACK 205 AUDIO
    TITLE "TOEIC LR Kinnojyukugo_04_0205"
    INDEX 01 04:36:05
  TRACK 206 AUDIO
    TITLE "TOEIC LR Kinnojyukugo_04_0206"
    INDEX 01 04:36:46
  TRACK 207 AUDIO
    TITLE "TOEIC LR Kinnojyukugo_04_0207"
    INDEX 01 04:39:04
  TRACK 208 AUDIO
    TITLE "TOEIC LR Kinnojyukugo_04_0208"
    INDEX 01 04:39:41
  TRACK 209 AUDIO
    TITLE "TOEIC LR Kinnojyukugo_04_0209"
    INDEX 01 04:41:38
  TRACK 210 AUDIO
    TITLE "TOEIC LR Kinnojyukugo_04_0210"
    INDEX 01 04:41:63
  TRACK 211 AUDIO
    TITLE "TOEIC LR Kinnojyukugo_04_0211"
    INDEX 01 04:43:60
  TRACK 212 AUDIO
    TITLE "TOEIC LR Kinnojyukugo_04_0212"
    INDEX 01 04:44:63
  TRACK 213 AUDIO
    TITLE "TOEIC LR Kinnojyukugo_04_0213"
    INDEX 01 04:46:04
  TRACK 214 AUDIO
    TITLE "TOEIC LR Kinnojyukugo_04_0214"
    INDEX 01 04:46:41
  TRACK 215 AUDIO
    TITLE "TOEIC LR Kinnojyukugo_04_0215"
    INDEX 01 04:47:58
  TRACK 216 AUDIO
    TITLE "TOEIC LR Kinnojyukugo_04_0216"
    INDEX 01 04:48:20
  TRACK 217 AUDIO
    TITLE "TOEIC LR Kinnojyukugo_04_0217"
    INDEX 01 04:51:15
  TRACK 218 AUDIO
    TITLE "TOEIC LR Kinnojyukugo_04_0218"
    INDEX 01 04:51:52
  TRACK 219 AUDIO
    TITLE "TOEIC LR Kinnojyukugo_04_0219"
    INDEX 01 04:54:40
  TRACK 220 AUDIO
    TITLE "TOEIC LR Kinnojyukugo_04_0220"
    INDEX 01 04:54:66
  TRACK 221 AUDIO
    TITLE "TOEIC LR Kinnojyukugo_04_0221"
    INDEX 01 04:57:52
  TRACK 222 AUDIO
    TITLE "TOEIC LR Kinnojyukugo_04_0222"
    INDEX 01 04:58:52
  TRACK 223 AUDIO
    TITLE "TOEIC LR Kinnojyukugo_04_0223"
    INDEX 01 05:00:51
  TRACK 224 AUDIO
    TITLE "TOEIC LR Kinnojyukugo_04_0224"
    INDEX 01 05:01:15
  TRACK 225 AUDIO
    TITLE "TOEIC LR Kinnojyukugo_04_0225"
    INDEX 01 05:02:34
  TRACK 226 AUDIO
    TITLE "TOEIC LR Kinnojyukugo_04_0226"
    INDEX 01 05:02:73
  TRACK 227 AUDIO
    TITLE "TOEIC LR Kinnojyukugo_04_0227"
    INDEX 01 05:05:26
  TRACK 228 AUDIO
    TITLE "TOEIC LR Kinnojyukugo_04_0228"
    INDEX 01 05:05:66
  TRACK 229 AUDIO
    TITLE "TOEIC LR Kinnojyukugo_04_0229"
    INDEX 01 05:08:46
  TRACK 230 AUDIO
    TITLE "TOEIC LR Kinnojyukugo_04_0230"
    INDEX 01 05:08:70
  TRACK 231 AUDIO
    TITLE "TOEIC LR Kinnojyukugo_04_0231"
    INDEX 01 05:11:51
  TRACK 232 AUDIO
    TITLE "TOEIC LR Kinnojyukugo_04_0232"
    INDEX 01 05:12:50
  TRACK 233 AUDIO
    TITLE "TOEIC LR Kinnojyukugo_04_0233"
    INDEX 01 05:14:14
  TRACK 234 AUDIO
    TITLE "TOEIC LR Kinnojyukugo_04_0234"
    INDEX 01 05:14:53
  TRACK 235 AUDIO
    TITLE "TOEIC LR Kinnojyukugo_04_0235"
    INDEX 01 05:16:07
  TRACK 236 AUDIO
    TITLE "TOEIC LR Kinnojyukugo_04_0236"
    INDEX 01 05:16:46
  TRACK 237 AUDIO
    TITLE "TOEIC LR Kinnojyukugo_04_0237"
    INDEX 01 05:18:68
  TRACK 238 AUDIO
    TITLE "TOEIC LR Kinnojyukugo_04_0238"
    INDEX 01 05:19:32
  TRACK 239 AUDIO
    TITLE "TOEIC LR Kinnojyukugo_04_0239"
    INDEX 01 05:21:72
  TRACK 240 AUDIO
    TITLE "TOEIC LR Kinnojyukugo_04_0240"
    INDEX 01 05:22:25
  TRACK 241 AUDIO
    TITLE "TOEIC LR Kinnojyukugo_04_0241"
    INDEX 01 05:24:63
  TRACK 242 AUDIO
    TITLE "TOEIC LR Kinnojyukugo_04_0242"
    INDEX 01 05:25:62
  TRACK 243 AUDIO
    TITLE "TOEIC LR Kinnojyukugo_04_0243"
    INDEX 01 05:27:48
  TRACK 244 AUDIO
    TITLE "TOEIC LR Kinnojyukugo_04_0244"
    INDEX 01 05:28:10
  TRACK 245 AUDIO
    TITLE "TOEIC LR Kinnojyukugo_04_0245"
    INDEX 01 05:29:66
  TRACK 246 AUDIO
    TITLE "TOEIC LR Kinnojyukugo_04_0246"
    INDEX 01 05:30:32
  TRACK 247 AUDIO
    TITLE "TOEIC LR Kinnojyukugo_04_0247"
    INDEX 01 05:33:52
  TRACK 248 AUDIO
    TITLE "TOEIC LR Kinnojyukugo_04_0248"
    INDEX 01 05:34:14
  TRACK 249 AUDIO
    TITLE "TOEIC LR Kinnojyukugo_04_0249"
    INDEX 01 05:37:34
  TRACK 250 AUDIO
    TITLE "TOEIC LR Kinnojyukugo_04_0250"
    INDEX 01 05:37:60
  TRACK 251 AUDIO
    TITLE "TOEIC LR Kinnojyukugo_04_0251"
    INDEX 01 05:41:05
  TRACK 252 AUDIO
    TITLE "TOEIC LR Kinnojyukugo_04_0252"
    INDEX 01 05:42:06
  TRACK 253 AUDIO
    TITLE "TOEIC LR Kinnojyukugo_04_0253"
    INDEX 01 05:43:23
  TRACK 254 AUDIO
    TITLE "TOEIC LR Kinnojyukugo_04_0254"
    INDEX 01 05:43:66
  TRACK 255 AUDIO
    TITLE "TOEIC LR Kinnojyukugo_04_0255"
    INDEX 01 05:45:26
  TRACK 256 AUDIO
    TITLE "TOEIC LR Kinnojyukugo_04_0256"
    INDEX 01 05:45:63
  TRACK 257 AUDIO
    TITLE "TOEIC LR Kinnojyukugo_04_0257"
    INDEX 01 05:48:65
  TRACK 258 AUDIO
    TITLE "TOEIC LR Kinnojyukugo_04_0258"
    INDEX 01 05:49:30
  TRACK 259 AUDIO
    TITLE "TOEIC LR Kinnojyukugo_04_0259"
    INDEX 01 05:53:08
  TRACK 260 AUDIO
    TITLE "TOEIC LR Kinnojyukugo_04_0260"
    INDEX 01 05:53:31
  TRACK 261 AUDIO
    TITLE "TOEIC LR Kinnojyukugo_04_0261"
    INDEX 01 05:57:11
  TRACK 262 AUDIO
    TITLE "TOEIC LR Kinnojyukugo_04_0262"
    INDEX 01 05:58:19
  TRACK 263 AUDIO
    TITLE "TOEIC LR Kinnojyukugo_04_0263"
    INDEX 01 05:59:57
  TRACK 264 AUDIO
    TITLE "TOEIC LR Kinnojyukugo_04_0264"
    INDEX 01 06:00:20
  TRACK 265 AUDIO
    TITLE "TOEIC LR Kinnojyukugo_04_0265"
    INDEX 01 06:03:32
  TRACK 266 AUDIO
    TITLE "TOEIC LR Kinnojyukugo_04_0266"
    INDEX 01 06:03:71
  TRACK 267 AUDIO
    TITLE "TOEIC LR Kinnojyukugo_04_0267"
    INDEX 01 06:07:12
  TRACK 268 AUDIO
    TITLE "TOEIC LR Kinnojyukugo_04_0268"
    INDEX 01 06:07:51
  TRACK 269 AUDIO
    TITLE "TOEIC LR Kinnojyukugo_04_0269"
    INDEX 01 06:10:24
  TRACK 270 AUDIO
    TITLE "TOEIC LR Kinnojyukugo_04_0270"
    INDEX 01 06:10:51
  TRACK 271 AUDIO
    TITLE "TOEIC LR Kinnojyukugo_04_0271"
    INDEX 01 06:13:24
  TRACK 272 AUDIO
    TITLE "TOEIC LR Kinnojyukugo_04_0272"
    INDEX 01 06:14:28
  TRACK 273 AUDIO
    TITLE "TOEIC LR Kinnojyukugo_04_0273"
    INDEX 01 06:15:43
  TRACK 274 AUDIO
    TITLE "TOEIC LR Kinnojyukugo_04_0274"
    INDEX 01 06:16:09
  TRACK 275 AUDIO
    TITLE "TOEIC LR Kinnojyukugo_04_0275"
    INDEX 01 06:17:38
  TRACK 276 AUDIO
    TITLE "TOEIC LR Kinnojyukugo_04_0276"
    INDEX 01 06:18:06
  TRACK 277 AUDIO
    TITLE "TOEIC LR Kinnojyukugo_04_0277"
    INDEX 01 06:20:69
  TRACK 278 AUDIO
    TITLE "TOEIC LR Kinnojyukugo_04_0278"
    INDEX 01 06:21:47
  TRACK 279 AUDIO
    TITLE "TOEIC LR Kinnojyukugo_04_0279"
    INDEX 01 06:24:22
  TRACK 280 AUDIO
    TITLE "TOEIC LR Kinnojyukugo_04_0280"
    INDEX 01 06:24:55
  TRACK 281 AUDIO
    TITLE "TOEIC LR Kinnojyukugo_04_0281"
    INDEX 01 06:27:30
  TRACK 282 AUDIO
    TITLE "TOEIC LR Kinnojyukugo_04_0282"
    INDEX 01 06:28:34
  TRACK 283 AUDIO
    TITLE "TOEIC LR Kinnojyukugo_04_0283"
    INDEX 01 06:29:33
  TRACK 284 AUDIO
    TITLE "TOEIC LR Kinnojyukugo_04_0284"
    INDEX 01 06:30:09
  TRACK 285 AUDIO
    TITLE "TOEIC LR Kinnojyukugo_04_0285"
    INDEX 01 06:32:35
  TRACK 286 AUDIO
    TITLE "TOEIC LR Kinnojyukugo_04_0286"
    INDEX 01 06:32:72
  TRACK 287 AUDIO
    TITLE "TOEIC LR Kinnojyukugo_04_0287"
    INDEX 01 06:35:14
  TRACK 288 AUDIO
    TITLE "TOEIC LR Kinnojyukugo_04_0288"
    INDEX 01 06:35:49
  TRACK 289 AUDIO
    TITLE "TOEIC LR Kinnojyukugo_04_0289"
    INDEX 01 06:38:06
  TRACK 290 AUDIO
    TITLE "TOEIC LR Kinnojyukugo_04_0290"
    INDEX 01 06:38:34
  TRACK 291 AUDIO
    TITLE "TOEIC LR Kinnojyukugo_04_0291"
    INDEX 01 06:40:64
  TRACK 292 AUDIO
    TITLE "TOEIC LR Kinnojyukugo_04_0292"
    INDEX 01 06:41:66
  TRACK 293 AUDIO
    TITLE "TOEIC LR Kinnojyukugo_04_0293"
    INDEX 01 06:43:23
  TRACK 294 AUDIO
    TITLE "TOEIC LR Kinnojyukugo_04_0294"
    INDEX 01 06:43:63
  TRACK 295 AUDIO
    TITLE "TOEIC LR Kinnojyukugo_04_0295"
    INDEX 01 06:47:31
  TRACK 296 AUDIO
    TITLE "TOEIC LR Kinnojyukugo_04_0296"
    INDEX 01 06:47:72
  TRACK 297 AUDIO
    TITLE "TOEIC LR Kinnojyukugo_04_0297"
    INDEX 01 06:49:65
  TRACK 298 AUDIO
    TITLE "TOEIC LR Kinnojyukugo_04_0298"
    INDEX 01 06:50:29
  TRACK 299 AUDIO
    TITLE "TOEIC LR Kinnojyukugo_04_0299"
    INDEX 01 06:51:70
  TRACK 300 AUDIO
    TITLE "TOEIC LR Kinnojyukugo_04_0300"
    INDEX 01 06:52:20
  TRACK 301 AUDIO
    TITLE "TOEIC LR Kinnojyukugo_04_0301"
    INDEX 01 06:53:61
  TRACK 302 AUDIO
    TITLE "TOEIC LR Kinnojyukugo_04_0302"
    INDEX 01 06:54:60
  TRACK 303 AUDIO
    TITLE "TOEIC LR Kinnojyukugo_04_0303"
    INDEX 01 06:56:06
  TRACK 304 AUDIO
    TITLE "TOEIC LR Kinnojyukugo_04_0304"
    INDEX 01 06:56:42
  TRACK 305 AUDIO
    TITLE "TOEIC LR Kinnojyukugo_04_0305"
    INDEX 01 06:57:65
  TRACK 306 AUDIO
    TITLE "TOEIC LR Kinnojyukugo_04_0306"
    INDEX 01 06:58:39
  TRACK 307 AUDIO
    TITLE "TOEIC LR Kinnojyukugo_04_0307"
    INDEX 01 07:00:30
  TRACK 308 AUDIO
    TITLE "TOEIC LR Kinnojyukugo_04_0308"
    INDEX 01 07:00:69
  TRACK 309 AUDIO
    TITLE "TOEIC LR Kinnojyukugo_04_0309"
    INDEX 01 07:02:32
  TRACK 310 AUDIO
    TITLE "TOEIC LR Kinnojyukugo_04_0310"
    INDEX 01 07:02:58
  TRACK 311 AUDIO
    TITLE "TOEIC LR Kinnojyukugo_04_0311"
    INDEX 01 07:04:24
  TRACK 312 AUDIO
    TITLE "TOEIC LR Kinnojyukugo_04_0312"
    INDEX 01 07:05:23
  TRACK 313 AUDIO
    TITLE "TOEIC LR Kinnojyukugo_04_0313"
    INDEX 01 07:06:66
  TRACK 314 AUDIO
    TITLE "TOEIC LR Kinnojyukugo_04_0314"
    INDEX 01 07:07:28
  TRACK 315 AUDIO
    TITLE "TOEIC LR Kinnojyukugo_04_0315"
    INDEX 01 07:08:47
  TRACK 316 AUDIO
    TITLE "TOEIC LR Kinnojyukugo_04_0316"
    INDEX 01 07:09:15
  TRACK 317 AUDIO
    TITLE "TOEIC LR Kinnojyukugo_04_0317"
    INDEX 01 07:11:59
  TRACK 318 AUDIO
    TITLE "TOEIC LR Kinnojyukugo_04_0318"
    INDEX 01 07:12:23
  TRACK 319 AUDIO
    TITLE "TOEIC LR Kinnojyukugo_04_0319"
    INDEX 01 07:15:06
  TRACK 320 AUDIO
    TITLE "TOEIC LR Kinnojyukugo_04_0320"
    INDEX 01 07:15:29
  TRACK 321 AUDIO
    TITLE "TOEIC LR Kinnojyukugo_04_0321"
    INDEX 01 07:18:14
  TRACK 322 AUDIO
    TITLE "TOEIC LR Kinnojyukugo_04_0322"
    INDEX 01 07:19:11
  TRACK 323 AUDIO
    TITLE "TOEIC LR Kinnojyukugo_04_0323"
    INDEX 01 07:21:26
  TRACK 324 AUDIO
    TITLE "TOEIC LR Kinnojyukugo_04_0324"
    INDEX 01 07:21:69
  TRACK 325 AUDIO
    TITLE "TOEIC LR Kinnojyukugo_04_0325"
    INDEX 01 07:24:01
  TRACK 326 AUDIO
    TITLE "TOEIC LR Kinnojyukugo_04_0326"
    INDEX 01 07:24:38
  TRACK 327 AUDIO
    TITLE "TOEIC LR Kinnojyukugo_04_0327"
    INDEX 01 07:27:01
  TRACK 328 AUDIO
    TITLE "TOEIC LR Kinnojyukugo_04_0328"
    INDEX 01 07:27:38
  TRACK 329 AUDIO
    TITLE "TOEIC LR Kinnojyukugo_04_0329"
    INDEX 01 07:29:74
  TRACK 330 AUDIO
    TITLE "TOEIC LR Kinnojyukugo_04_0330"
    INDEX 01 07:30:25
  TRACK 331 AUDIO
    TITLE "TOEIC LR Kinnojyukugo_04_0331"
    INDEX 01 07:32:61
  TRACK 332 AUDIO
    TITLE "TOEIC LR Kinnojyukugo_04_0332"
    INDEX 01 07:33:62
  TRACK 333 AUDIO
    TITLE "TOEIC LR Kinnojyukugo_04_0333"
    INDEX 01 07:35:34
  TRACK 334 AUDIO
    TITLE "TOEIC LR Kinnojyukugo_04_0334"
    INDEX 01 07:35:75
  TRACK 335 AUDIO
    TITLE "TOEIC LR Kinnojyukugo_04_0335"
    INDEX 01 07:39:02
  TRACK 336 AUDIO
    TITLE "TOEIC LR Kinnojyukugo_04_0336"
    INDEX 01 07:39:36
  TRACK 337 AUDIO
    TITLE "TOEIC LR Kinnojyukugo_04_0337"
    INDEX 01 07:42:38
  TRACK 338 AUDIO
    TITLE "TOEIC LR Kinnojyukugo_04_0338"
    INDEX 01 07:43:02
  TRACK 339 AUDIO
    TITLE "TOEIC LR Kinnojyukugo_04_0339"
    INDEX 01 07:46:08
  TRACK 340 AUDIO
    TITLE "TOEIC LR Kinnojyukugo_04_0340"
    INDEX 01 07:46:32
  TRACK 341 AUDIO
    TITLE "TOEIC LR Kinnojyukugo_04_0341"
    INDEX 01 07:49:38
  TRACK 342 AUDIO
    TITLE "TOEIC LR Kinnojyukugo_04_0342"
    INDEX 01 07:50:37
  TRACK 343 AUDIO
    TITLE "TOEIC LR Kinnojyukugo_04_0343"
    INDEX 01 07:51:60
  TRACK 344 AUDIO
    TITLE "TOEIC LR Kinnojyukugo_04_0344"
    INDEX 01 07:52:24
  TRACK 345 AUDIO
    TITLE "TOEIC LR Kinnojyukugo_04_0345"
    INDEX 01 07:55:07
  TRACK 346 AUDIO
    TITLE "TOEIC LR Kinnojyukugo_04_0346"
    INDEX 01 07:55:44
  TRACK 347 AUDIO
    TITLE "TOEIC LR Kinnojyukugo_04_0347"
    INDEX 01 07:58:51
  TRACK 348 AUDIO
    TITLE "TOEIC LR Kinnojyukugo_04_0348"
    INDEX 01 07:59:13
  TRACK 349 AUDIO
    TITLE "TOEIC LR Kinnojyukugo_04_0349"
    INDEX 01 08:01:74
  TRACK 350 AUDIO
    TITLE "TOEIC LR Kinnojyukugo_04_0350"
    INDEX 01 08:02:25
  TRACK 351 AUDIO
    TITLE "TOEIC LR Kinnojyukugo_04_0351"
    INDEX 01 08:05:11
  TRACK 352 AUDIO
    TITLE "TOEIC LR Kinnojyukugo_04_0352"
    INDEX 01 08:06:13
  TRACK 353 AUDIO
    TITLE "TOEIC LR Kinnojyukugo_04_0353"
    INDEX 01 08:09:17
  TRACK 354 AUDIO
    TITLE "TOEIC LR Kinnojyukugo_04_0354"
    INDEX 01 08:09:54
  TRACK 355 AUDIO
    TITLE "TOEIC LR Kinnojyukugo_04_0355"
    INDEX 01 08:10:73
  TRACK 356 AUDIO
    TITLE "TOEIC LR Kinnojyukugo_04_0356"
    INDEX 01 08:11:43
  TRACK 357 AUDIO
    TITLE "TOEIC LR Kinnojyukugo_04_0357"
    INDEX 01 08:13:48
  TRACK 358 AUDIO
    TITLE "TOEIC LR Kinnojyukugo_04_0358"
    INDEX 01 08:14:12
  TRACK 359 AUDIO
    TITLE "TOEIC LR Kinnojyukugo_04_0359"
    INDEX 01 08:16:23
  TRACK 360 AUDIO
    TITLE "TOEIC LR Kinnojyukugo_04_0360"
    INDEX 01 08:16:48
  TRACK 361 AUDIO
    TITLE "TOEIC LR Kinnojyukugo_04_0361"
    INDEX 01 08:18:57
  TRACK 362 AUDIO
    TITLE "TOEIC LR Kinnojyukugo_04_0362"
    INDEX 01 08:19:57
  TRACK 363 AUDIO
    TITLE "TOEIC LR Kinnojyukugo_04_0363"
    INDEX 01 08:21:18
  TRACK 364 AUDIO
    TITLE "TOEIC LR Kinnojyukugo_04_0364"
    INDEX 01 08:21:57
  TRACK 365 AUDIO
    TITLE "TOEIC LR Kinnojyukugo_04_0365"
    INDEX 01 08:23:21
  TRACK 366 AUDIO
    TITLE "TOEIC LR Kinnojyukugo_04_0366"
    INDEX 01 08:23:62
  TRACK 367 AUDIO
    TITLE "TOEIC LR Kinnojyukugo_04_0367"
    INDEX 01 08:27:35
  TRACK 368 AUDIO
    TITLE "TOEIC LR Kinnojyukugo_04_0368"
    INDEX 01 08:27:72
  TRACK 369 AUDIO
    TITLE "TOEIC LR Kinnojyukugo_04_0369"
    INDEX 01 08:30:51
  TRACK 370 AUDIO
    TITLE "TOEIC LR Kinnojyukugo_04_0370"
    INDEX 01 08:31:03
  TRACK 371 AUDIO
    TITLE "TOEIC LR Kinnojyukugo_04_0371"
    INDEX 01 08:33:57
  TRACK 372 AUDIO
    TITLE "TOEIC LR Kinnojyukugo_04_0372"
    INDEX 01 08:34:58
  TRACK 373 AUDIO
    TITLE "TOEIC LR Kinnojyukugo_04_0373"
    INDEX 01 08:35:69
  TRACK 374 AUDIO
    TITLE "TOEIC LR Kinnojyukugo_04_0374"
    INDEX 01 08:36:37
  TRACK 375 AUDIO
    TITLE "TOEIC LR Kinnojyukugo_04_0375"
    INDEX 01 08:38:60
  TRACK 376 AUDIO
    TITLE "TOEIC LR Kinnojyukugo_04_0376"
    INDEX 01 08:39:24
  TRACK 377 AUDIO
    TITLE "TOEIC LR Kinnojyukugo_04_0377"
    INDEX 01 08:41:35
  TRACK 378 AUDIO
    TITLE "TOEIC LR Kinnojyukugo_04_0378"
    INDEX 01 08:41:72
  TRACK 379 AUDIO
    TITLE "TOEIC LR Kinnojyukugo_04_0379"
    INDEX 01 08:43:45
  TRACK 380 AUDIO
    TITLE "TOEIC LR Kinnojyukugo_04_0380"
    INDEX 01 08:43:73
  TRACK 381 AUDIO
    TITLE "TOEIC LR Kinnojyukugo_04_0381"
    INDEX 01 08:45:46
  TRACK 382 AUDIO
    TITLE "TOEIC LR Kinnojyukugo_04_0382"
    INDEX 01 08:46:48
  TRACK 383 AUDIO
    TITLE "TOEIC LR Kinnojyukugo_04_0383"
    INDEX 01 08:48:19
  TRACK 384 AUDIO
    TITLE "TOEIC LR Kinnojyukugo_04_0384"
    INDEX 01 08:48:58
  TRACK 385 AUDIO
    TITLE "TOEIC LR Kinnojyukugo_04_0385"
    INDEX 01 08:50:57
  TRACK 386 AUDIO
    TITLE "TOEIC LR Kinnojyukugo_04_0386"
    INDEX 01 08:51:27
  TRACK 387 AUDIO
    TITLE "TOEIC LR Kinnojyukugo_04_0387"
    INDEX 01 08:54:08
  TRACK 388 AUDIO
    TITLE "TOEIC LR Kinnojyukugo_04_0388"
    INDEX 01 08:54:47
  TRACK 389 AUDIO
    TITLE "TOEIC LR Kinnojyukugo_04_0389"
    INDEX 01 08:57:06
  TRACK 390 AUDIO
    TITLE "TOEIC LR Kinnojyukugo_04_0390"
    INDEX 01 08:57:32
  TRACK 391 AUDIO
    TITLE "TOEIC LR Kinnojyukugo_04_0391"
    INDEX 01 08:59:66
  TRACK 392 AUDIO
    TITLE "TOEIC LR Kinnojyukugo_04_0392"
    INDEX 01 09:00:67
  TRACK 393 AUDIO
    TITLE "TOEIC LR Kinnojyukugo_04_0393"
    INDEX 01 09:02:07
  TRACK 394 AUDIO
    TITLE "TOEIC LR Kinnojyukugo_04_0394"
    INDEX 01 09:02:45
  TRACK 395 AUDIO
    TITLE "TOEIC LR Kinnojyukugo_04_0395"
    INDEX 01 09:05:14
  TRACK 396 AUDIO
    TITLE "TOEIC LR Kinnojyukugo_04_0396"
    INDEX 01 09:05:49
  TRACK 397 AUDIO
    TITLE "TOEIC LR Kinnojyukugo_04_0397"
    INDEX 01 09:07:28
  TRACK 398 AUDIO
    TITLE "TOEIC LR Kinnojyukugo_04_0398"
    INDEX 01 09:07:67
  TRACK 399 AUDIO
    TITLE "TOEIC LR Kinnojyukugo_04_0399"
    INDEX 01 09:09:49
  TRACK 400 AUDIO
    TITLE "TOEIC LR Kinnojyukugo_04_0400"
    INDEX 01 09:09:72
  TRACK 401 AUDIO
    TITLE "TOEIC LR Kinnojyukugo_04_0401"
    INDEX 01 09:11:53
  TRACK 402 AUDIO
    TITLE "TOEIC LR Kinnojyukugo_04_0402"
    INDEX 01 09:12:55
  TRACK 403 AUDIO
    TITLE "TOEIC LR Kinnojyukugo_04_0403"
    INDEX 01 09:14:20
  TRACK 404 AUDIO
    TITLE "TOEIC LR Kinnojyukugo_04_0404"
    INDEX 01 09:14:60
  TRACK 405 AUDIO
    TITLE "TOEIC LR Kinnojyukugo_04_0405"
    INDEX 01 09:16:31
  TRACK 406 AUDIO
    TITLE "TOEIC LR Kinnojyukugo_04_0406"
    INDEX 01 09:16:72
  TRACK 407 AUDIO
    TITLE "TOEIC LR Kinnojyukugo_04_0407"
    INDEX 01 09:20:13
  TRACK 408 AUDIO
    TITLE "TOEIC LR Kinnojyukugo_04_0408"
    INDEX 01 09:20:54
  TRACK 409 AUDIO
    TITLE "TOEIC LR Kinnojyukugo_04_0409"
    INDEX 01 09:23:41
  TRACK 410 AUDIO
    TITLE "TOEIC LR Kinnojyukugo_04_0410"
    INDEX 01 09:23:66
  TRACK 411 AUDIO
    TITLE "TOEIC LR Kinnojyukugo_04_0411"
    INDEX 01 09:26:53
  TRACK 412 AUDIO
    TITLE "TOEIC LR Kinnojyukugo_04_0412"
    INDEX 01 09:27:56
  TRACK 413 AUDIO
    TITLE "TOEIC LR Kinnojyukugo_04_0413"
    INDEX 01 09:29:04
  TRACK 414 AUDIO
    TITLE "TOEIC LR Kinnojyukugo_04_0414"
    INDEX 01 09:29:44
  TRACK 415 AUDIO
    TITLE "TOEIC LR Kinnojyukugo_04_0415"
    INDEX 01 09:32:12
  TRACK 416 AUDIO
    TITLE "TOEIC LR Kinnojyukugo_04_0416"
    INDEX 01 09:32:50
  TRACK 417 AUDIO
    TITLE "TOEIC LR Kinnojyukugo_04_0417"
    INDEX 01 09:35:11
  TRACK 418 AUDIO
    TITLE "TOEIC LR Kinnojyukugo_04_0418"
    INDEX 01 09:35:50
  TRACK 419 AUDIO
    TITLE "TOEIC LR Kinnojyukugo_04_0419"
    INDEX 01 09:38:05
  TRACK 420 AUDIO
    TITLE "TOEIC LR Kinnojyukugo_04_0420"
    INDEX 01 09:38:29
  TRACK 421 AUDIO
    TITLE "TOEIC LR Kinnojyukugo_04_0421"
    INDEX 01 09:40:61
  TRACK 422 AUDIO
    TITLE "TOEIC LR Kinnojyukugo_04_0422"
    INDEX 01 09:41:62
  TRACK 423 AUDIO
    TITLE "TOEIC LR Kinnojyukugo_04_0423"
    INDEX 01 09:43:10
  TRACK 424 AUDIO
    TITLE "TOEIC LR Kinnojyukugo_04_0424"
    INDEX 01 09:43:48
  TRACK 425 AUDIO
    TITLE "TOEIC LR Kinnojyukugo_04_0425"
    INDEX 01 09:45:05
  TRACK 426 AUDIO
    TITLE "TOEIC LR Kinnojyukugo_04_0426"
    INDEX 01 09:45:43
  TRACK 427 AUDIO
    TITLE "TOEIC LR Kinnojyukugo_04_0427"
    INDEX 01 09:47:69
  TRACK 428 AUDIO
    TITLE "TOEIC LR Kinnojyukugo_04_0428"
    INDEX 01 09:48:33
  TRACK 429 AUDIO
    TITLE "TOEIC LR Kinnojyukugo_04_0429"
    INDEX 01 09:50:59
  TRACK 430 AUDIO
    TITLE "TOEIC LR Kinnojyukugo_04_0430"
    INDEX 01 09:51:12
  TRACK 431 AUDIO
    TITLE "TOEIC LR Kinnojyukugo_04_0431"
    INDEX 01 09:53:38
  TRACK 432 AUDIO
    TITLE "TOEIC LR Kinnojyukugo_04_0432"
    INDEX 01 09:54:38
  TRACK 433 AUDIO
    TITLE "TOEIC LR Kinnojyukugo_04_0433"
    INDEX 01 09:55:64
  TRACK 434 AUDIO
    TITLE "TOEIC LR Kinnojyukugo_04_0434"
    INDEX 01 09:56:31
  TRACK 435 AUDIO
    TITLE "TOEIC LR Kinnojyukugo_04_0435"
    INDEX 01 09:58:61
  TRACK 436 AUDIO
    TITLE "TOEIC LR Kinnojyukugo_04_0436"
    INDEX 01 09:59:25
  TRACK 437 AUDIO
    TITLE "TOEIC LR Kinnojyukugo_04_0437"
    INDEX 01 10:01:67
  TRACK 438 AUDIO
    TITLE "TOEIC LR Kinnojyukugo_04_0438"
    INDEX 01 10:02:31
  TRACK 439 AUDIO
    TITLE "TOEIC LR Kinnojyukugo_04_0439"
    INDEX 01 10:04:63
  TRACK 440 AUDIO
    TITLE "TOEIC LR Kinnojyukugo_04_0440"
    INDEX 01 10:05:16
  TRACK 441 AUDIO
    TITLE "TOEIC LR Kinnojyukugo_04_0441"
    INDEX 01 10:07:50
  TRACK 442 AUDIO
    TITLE "TOEIC LR Kinnojyukugo_04_0442"
    INDEX 01 10:08:49
  TRACK 443 AUDIO
    TITLE "TOEIC LR Kinnojyukugo_04_0443"
    INDEX 01 10:10:19
  TRACK 444 AUDIO
    TITLE "TOEIC LR Kinnojyukugo_04_0444"
    INDEX 01 10:10:58
  TRACK 445 AUDIO
    TITLE "TOEIC LR Kinnojyukugo_04_0445"
    INDEX 01 10:13:33
  TRACK 446 AUDIO
    TITLE "TOEIC LR Kinnojyukugo_04_0446"
    INDEX 01 10:13:72
  TRACK 447 AUDIO
    TITLE "TOEIC LR Kinnojyukugo_04_0447"
    INDEX 01 10:17:70
  TRACK 448 AUDIO
    TITLE "TOEIC LR Kinnojyukugo_04_0448"
    INDEX 01 10:18:34
  TRACK 449 AUDIO
    TITLE "TOEIC LR Kinnojyukugo_04_0449"
    INDEX 01 10:21:70
  TRACK 450 AUDIO
    TITLE "TOEIC LR Kinnojyukugo_04_0450"
    INDEX 01 10:22:20
  TRACK 451 AUDIO
    TITLE "TOEIC LR Kinnojyukugo_04_0451"
    INDEX 01 10:25:54
  TRACK 452 AUDIO
    TITLE "TOEIC LR Kinnojyukugo_04_0452"
    INDEX 01 10:26:57
  TRACK 453 AUDIO
    TITLE "TOEIC LR Kinnojyukugo_04_0453"
    INDEX 01 10:28:27
  TRACK 454 AUDIO
    TITLE "TOEIC LR Kinnojyukugo_04_0454"
    INDEX 01 10:28:66
  TRACK 455 AUDIO
    TITLE "TOEIC LR Kinnojyukugo_04_0455"
    INDEX 01 10:30:41
  TRACK 456 AUDIO
    TITLE "TOEIC LR Kinnojyukugo_04_0456"
    INDEX 01 10:31:09
  TRACK 457 AUDIO
    TITLE "TOEIC LR Kinnojyukugo_04_0457"
    INDEX 01 10:34:41
  TRACK 458 AUDIO
    TITLE "TOEIC LR Kinnojyukugo_04_0458"
    INDEX 01 10:35:05
  TRACK 459 AUDIO
    TITLE "TOEIC LR Kinnojyukugo_04_0459"
    INDEX 01 10:38:07
  TRACK 460 AUDIO
    TITLE "TOEIC LR Kinnojyukugo_04_0460"
    INDEX 01 10:38:33
  TRACK 461 AUDIO
    TITLE "TOEIC LR Kinnojyukugo_04_0461"
    INDEX 01 10:41:35
  TRACK 462 AUDIO
    TITLE "TOEIC LR Kinnojyukugo_04_0462"
    INDEX 01 10:42:35
  TRACK 463 AUDIO
    TITLE "TOEIC LR Kinnojyukugo_04_0463"
    INDEX 01 10:43:52
  TRACK 464 AUDIO
    TITLE "TOEIC LR Kinnojyukugo_04_0464"
    INDEX 01 10:44:16
  TRACK 465 AUDIO
    TITLE "TOEIC LR Kinnojyukugo_04_0465"
    INDEX 01 10:45:17
  TRACK 466 AUDIO
    TITLE "TOEIC LR Kinnojyukugo_04_0466"
    INDEX 01 10:45:55
  TRACK 467 AUDIO
    TITLE "TOEIC LR Kinnojyukugo_04_0467"
    INDEX 01 10:47:53
  TRACK 468 AUDIO
    TITLE "TOEIC LR Kinnojyukugo_04_0468"
    INDEX 01 10:48:18
  TRACK 469 AUDIO
    TITLE "TOEIC LR Kinnojyukugo_04_0469"
    INDEX 01 10:50:28
  TRACK 470 AUDIO
    TITLE "TOEIC LR Kinnojyukugo_04_0470"
    INDEX 01 10:50:56
  TRACK 471 AUDIO
    TITLE "TOEIC LR Kinnojyukugo_04_0471"
    INDEX 01 10:52:64
  TRACK 472 AUDIO
    TITLE "TOEIC LR Kinnojyukugo_04_0472"
    INDEX 01 10:53:68
  TRACK 473 AUDIO
    TITLE "TOEIC LR Kinnojyukugo_04_0473"
    INDEX 01 10:55:18
  TRACK 474 AUDIO
    TITLE "TOEIC LR Kinnojyukugo_04_0474"
    INDEX 01 10:55:57
  TRACK 475 AUDIO
    TITLE "TOEIC LR Kinnojyukugo_04_0475"
    INDEX 01 10:56:64
  TRACK 476 AUDIO
    TITLE "TOEIC LR Kinnojyukugo_04_0476"
    INDEX 01 10:57:26
  TRACK 477 AUDIO
    TITLE "TOEIC LR Kinnojyukugo_04_0477"
    INDEX 01 10:59:57
  TRACK 478 AUDIO
    TITLE "TOEIC LR Kinnojyukugo_04_0478"
    INDEX 01 11:00:25
  TRACK 479 AUDIO
    TITLE "TOEIC LR Kinnojyukugo_04_0479"
    INDEX 01 11:02:35
  TRACK 480 AUDIO
    TITLE "TOEIC LR Kinnojyukugo_04_0480"
    INDEX 01 11:02:61
  TRACK 481 AUDIO
    TITLE "TOEIC LR Kinnojyukugo_04_0481"
    INDEX 01 11:04:72
  TRACK 482 AUDIO
    TITLE "TOEIC LR Kinnojyukugo_04_0482"
    INDEX 01 11:05:73
  TRACK 483 AUDIO
    TITLE "TOEIC LR Kinnojyukugo_04_0483"
    INDEX 01 11:07:15
  TRACK 484 AUDIO
    TITLE "TOEIC LR Kinnojyukugo_04_0484"
    INDEX 01 11:07:54
  TRACK 485 AUDIO
    TITLE "TOEIC LR Kinnojyukugo_04_0485"
    INDEX 01 11:08:48
  TRACK 486 AUDIO
    TITLE "TOEIC LR Kinnojyukugo_04_0486"
    INDEX 01 11:09:12
  TRACK 487 AUDIO
    TITLE "TOEIC LR Kinnojyukugo_04_0487"
    INDEX 01 11:11:52
  TRACK 488 AUDIO
    TITLE "TOEIC LR Kinnojyukugo_04_0488"
    INDEX 01 11:12:16
  TRACK 489 AUDIO
    TITLE "TOEIC LR Kinnojyukugo_04_0489"
    INDEX 01 11:14:29
  TRACK 490 AUDIO
    TITLE "TOEIC LR Kinnojyukugo_04_0490"
    INDEX 01 11:14:52
  TRACK 491 AUDIO
    TITLE "TOEIC LR Kinnojyukugo_04_0491"
    INDEX 01 11:16:65
  TRACK 492 AUDIO
    TITLE "TOEIC LR Kinnojyukugo_04_0492"
    INDEX 01 11:17:68
  TRACK 493 AUDIO
    TITLE "TOEIC LR Kinnojyukugo_04_0493"
    INDEX 01 11:19:12
  TRACK 494 AUDIO
    TITLE "TOEIC LR Kinnojyukugo_04_0494"
    INDEX 01 11:19:53
  TRACK 495 AUDIO
    TITLE "TOEIC LR Kinnojyukugo_04_0495"
    INDEX 01 11:23:67
  TRACK 496 AUDIO
    TITLE "TOEIC LR Kinnojyukugo_04_0496"
    INDEX 01 11:24:29
  TRACK 497 AUDIO
    TITLE "TOEIC LR Kinnojyukugo_04_0497"
    INDEX 01 11:26:55
  TRACK 498 AUDIO
    TITLE "TOEIC LR Kinnojyukugo_04_0498"
    INDEX 01 11:27:18
  TRACK 499 AUDIO
    TITLE "TOEIC LR Kinnojyukugo_04_0499"
    INDEX 01 11:29:03
  TRACK 500 AUDIO
    TITLE "TOEIC LR Kinnojyukugo_04_0500"
    INDEX 01 11:29:28
  TRACK 501 AUDIO
    TITLE "TOEIC LR Kinnojyukugo_04_0501"
    INDEX 01 11:31:16
  TRACK 502 AUDIO
    TITLE "TOEIC LR Kinnojyukugo_04_0502"
    INDEX 01 11:32:13
  TRACK 503 AUDIO
    TITLE "TOEIC LR Kinnojyukugo_04_0503"
    INDEX 01 11:33:32
  TRACK 504 AUDIO
    TITLE "TOEIC LR Kinnojyukugo_04_0504"
    INDEX 01 11:33:69
  TRACK 505 AUDIO
    TITLE "TOEIC LR Kinnojyukugo_04_0505"
    INDEX 01 11:36:09
  TRACK 506 AUDIO
    TITLE "TOEIC LR Kinnojyukugo_04_0506"
    INDEX 01 11:36:50
  TRACK 507 AUDIO
    TITLE "TOEIC LR Kinnojyukugo_04_0507"
    INDEX 01 11:39:05
  TRACK 508 AUDIO
    TITLE "TOEIC LR Kinnojyukugo_04_0508"
    INDEX 01 11:39:48
  TRACK 509 AUDIO
    TITLE "TOEIC LR Kinnojyukugo_04_0509"
    INDEX 01 11:41:59
  TRACK 510 AUDIO
    TITLE "TOEIC LR Kinnojyukugo_04_0510"
    INDEX 01 11:42:07
  TRACK 511 AUDIO
    TITLE "TOEIC LR Kinnojyukugo_04_0511"
    INDEX 01 11:44:20
  TRACK 512 AUDIO
    TITLE "TOEIC LR Kinnojyukugo_04_0512"
    INDEX 01 11:45:21
  TRACK 513 AUDIO
    TITLE "TOEIC LR Kinnojyukugo_04_0513"
    INDEX 01 11:46:17
  TRACK 514 AUDIO
    TITLE "TOEIC LR Kinnojyukugo_04_0514"
    INDEX 01 11:46:62
  TRACK 515 AUDIO
    TITLE "TOEIC LR Kinnojyukugo_04_0515"
    INDEX 01 11:47:64
  TRACK 516 AUDIO
    TITLE "TOEIC LR Kinnojyukugo_04_0516"
    INDEX 01 11:48:26
  TRACK 517 AUDIO
    TITLE "TOEIC LR Kinnojyukugo_04_0517"
    INDEX 01 11:51:40
  TRACK 518 AUDIO
    TITLE "TOEIC LR Kinnojyukugo_04_0518"
    INDEX 01 11:52:02
  TRACK 519 AUDIO
    TITLE "TOEIC LR Kinnojyukugo_04_0519"
    INDEX 01 11:55:08
  TRACK 520 AUDIO
    TITLE "TOEIC LR Kinnojyukugo_04_0520"
    INDEX 01 11:55:36
  TRACK 521 AUDIO
    TITLE "TOEIC LR Kinnojyukugo_04_0521"
    INDEX 01 11:58:42
  TRACK 522 AUDIO
    TITLE "TOEIC LR Kinnojyukugo_04_0522"
    INDEX 01 11:59:43
  TRACK 523 AUDIO
    TITLE "TOEIC LR Kinnojyukugo_04_0523"
    INDEX 01 12:00:52
  TRACK 524 AUDIO
    TITLE "TOEIC LR Kinnojyukugo_04_0524"
    INDEX 01 12:01:17
  TRACK 525 AUDIO
    TITLE "TOEIC LR Kinnojyukugo_04_0525"
    INDEX 01 12:02:22
  TRACK 526 AUDIO
    TITLE "TOEIC LR Kinnojyukugo_04_0526"
    INDEX 01 12:02:61
  TRACK 527 AUDIO
    TITLE "TOEIC LR Kinnojyukugo_04_0527"
    INDEX 01 12:04:72
  TRACK 528 AUDIO
    TITLE "TOEIC LR Kinnojyukugo_04_0528"
    INDEX 01 12:05:32
  TRACK 529 AUDIO
    TITLE "TOEIC LR Kinnojyukugo_04_0529"
    INDEX 01 12:07:41
  TRACK 530 AUDIO
    TITLE "TOEIC LR Kinnojyukugo_04_0530"
    INDEX 01 12:07:66
  TRACK 531 AUDIO
    TITLE "TOEIC LR Kinnojyukugo_04_0531"
    INDEX 01 12:09:75
  TRACK 532 AUDIO
    TITLE "TOEIC LR Kinnojyukugo_04_0532"
    INDEX 01 12:11:05
  TRACK 533 AUDIO
    TITLE "TOEIC LR Kinnojyukugo_04_0533"
    INDEX 01 12:12:30
  TRACK 534 AUDIO
    TITLE "TOEIC LR Kinnojyukugo_04_0534"
    INDEX 01 12:12:67
  TRACK 535 AUDIO
    TITLE "TOEIC LR Kinnojyukugo_04_0535"
    INDEX 01 12:13:61
  TRACK 536 AUDIO
    TITLE "TOEIC LR Kinnojyukugo_04_0536"
    INDEX 01 12:14:25
  TRACK 537 AUDIO
    TITLE "TOEIC LR Kinnojyukugo_04_0537"
    INDEX 01 12:17:29
  TRACK 538 AUDIO
    TITLE "TOEIC LR Kinnojyukugo_04_0538"
    INDEX 01 12:17:65
  TRACK 539 AUDIO
    TITLE "TOEIC LR Kinnojyukugo_04_0539"
    INDEX 01 12:20:65
  TRACK 540 AUDIO
    TITLE "TOEIC LR Kinnojyukugo_04_0540"
    INDEX 01 12:21:11
  TRACK 541 AUDIO
    TITLE "TOEIC LR Kinnojyukugo_04_0541"
    INDEX 01 12:24:12
  TRACK 542 AUDIO
    TITLE "TOEIC LR Kinnojyukugo_04_0542"
    INDEX 01 12:25:13
  TRACK 543 AUDIO
    TITLE "TOEIC LR Kinnojyukugo_04_0543"
    INDEX 01 12:26:22
  TRACK 544 AUDIO
    TITLE "TOEIC LR Kinnojyukugo_04_0544"
    INDEX 01 12:26:64
  TRACK 545 AUDIO
    TITLE "TOEIC LR Kinnojyukugo_04_0545"
    INDEX 01 12:28:12
  TRACK 546 AUDIO
    TITLE "TOEIC LR Kinnojyukugo_04_0546"
    INDEX 01 12:28:59
  TRACK 547 AUDIO
    TITLE "TOEIC LR Kinnojyukugo_04_0547"
    INDEX 01 12:31:45
  TRACK 548 AUDIO
    TITLE "TOEIC LR Kinnojyukugo_04_0548"
    INDEX 01 12:32:07
  TRACK 549 AUDIO
    TITLE "TOEIC LR Kinnojyukugo_04_0549"
    INDEX 01 12:34:47
  TRACK 550 AUDIO
    TITLE "TOEIC LR Kinnojyukugo_04_0550"
    INDEX 01 12:34:73
  TRACK 551 AUDIO
    TITLE "TOEIC LR Kinnojyukugo_04_0551"
    INDEX 01 12:37:38
  TRACK 552 AUDIO
    TITLE "TOEIC LR Kinnojyukugo_04_0552"
    INDEX 01 12:38:37
  TRACK 553 AUDIO
    TITLE "TOEIC LR Kinnojyukugo_04_0553"
    INDEX 01 12:39:58
  TRACK 554 AUDIO
    TITLE "TOEIC LR Kinnojyukugo_04_0554"
    INDEX 01 12:40:25
  TRACK 555 AUDIO
    TITLE "TOEIC LR Kinnojyukugo_04_0555"
    INDEX 01 12:41:55
  TRACK 556 AUDIO
    TITLE "TOEIC LR Kinnojyukugo_04_0556"
    INDEX 01 12:42:16
  TRACK 557 AUDIO
    TITLE "TOEIC LR Kinnojyukugo_04_0557"
    INDEX 01 12:44:54
  TRACK 558 AUDIO
    TITLE "TOEIC LR Kinnojyukugo_04_0558"
    INDEX 01 12:45:18
  TRACK 559 AUDIO
    TITLE "TOEIC LR Kinnojyukugo_04_0559"
    INDEX 01 12:47:32
  TRACK 560 AUDIO
    TITLE "TOEIC LR Kinnojyukugo_04_0560"
    INDEX 01 12:47:58
  TRACK 561 AUDIO
    TITLE "TOEIC LR Kinnojyukugo_04_0561"
    INDEX 01 12:49:72
  TRACK 562 AUDIO
    TITLE "TOEIC LR Kinnojyukugo_04_0562"
    INDEX 01 12:50:72
  TRACK 563 AUDIO
    TITLE "TOEIC LR Kinnojyukugo_04_0563"
    INDEX 01 12:52:24
  TRACK 564 AUDIO
    TITLE "TOEIC LR Kinnojyukugo_04_0564"
    INDEX 01 12:52:63
  TRACK 565 AUDIO
    TITLE "TOEIC LR Kinnojyukugo_04_0565"
    INDEX 01 12:55:57
  TRACK 566 AUDIO
    TITLE "TOEIC LR Kinnojyukugo_04_0566"
    INDEX 01 12:56:22
  TRACK 567 AUDIO
    TITLE "TOEIC LR Kinnojyukugo_04_0567"
    INDEX 01 12:58:20
  TRACK 568 AUDIO
    TITLE "TOEIC LR Kinnojyukugo_04_0568"
    INDEX 01 12:58:62
  TRACK 569 AUDIO
    TITLE "TOEIC LR Kinnojyukugo_04_0569"
    INDEX 01 13:01:11
  TRACK 570 AUDIO
    TITLE "TOEIC LR Kinnojyukugo_04_0570"
    INDEX 01 13:01:36
  TRACK 571 AUDIO
    TITLE "TOEIC LR Kinnojyukugo_04_0571"
    INDEX 01 13:03:61
  TRACK 572 AUDIO
    TITLE "TOEIC LR Kinnojyukugo_04_0572"
    INDEX 01 13:04:62
  TRACK 573 AUDIO
    TITLE "TOEIC LR Kinnojyukugo_04_0573"
    INDEX 01 13:05:75
  TRACK 574 AUDIO
    TITLE "TOEIC LR Kinnojyukugo_04_0574"
    INDEX 01 13:06:42
  TRACK 575 AUDIO
    TITLE "TOEIC LR Kinnojyukugo_04_0575"
    INDEX 01 13:07:61
  TRACK 576 AUDIO
    TITLE "TOEIC LR Kinnojyukugo_04_0576"
    INDEX 01 13:08:23
  TRACK 577 AUDIO
    TITLE "TOEIC LR Kinnojyukugo_04_0577"
    INDEX 01 13:09:59
  TRACK 578 AUDIO
    TITLE "TOEIC LR Kinnojyukugo_04_0578"
    INDEX 01 13:10:26
  TRACK 579 AUDIO
    TITLE "TOEIC LR Kinnojyukugo_04_0579"
    INDEX 01 13:11:62
  TRACK 580 AUDIO
    TITLE "TOEIC LR Kinnojyukugo_04_0580"
    INDEX 01 13:12:17
  TRACK 581 AUDIO
    TITLE "TOEIC LR Kinnojyukugo_04_0581"
    INDEX 01 13:13:44
  TRACK 582 AUDIO
    TITLE "TOEIC LR Kinnojyukugo_04_0582"
    INDEX 01 13:14:55
  TRACK 583 AUDIO
    TITLE "TOEIC LR Kinnojyukugo_04_0583"
    INDEX 01 13:16:01
  TRACK 584 AUDIO
    TITLE "TOEIC LR Kinnojyukugo_04_0584"
    INDEX 01 13:16:42
  TRACK 585 AUDIO
    TITLE "TOEIC LR Kinnojyukugo_04_0585"
    INDEX 01 13:17:69
  TRACK 586 AUDIO
    TITLE "TOEIC LR Kinnojyukugo_04_0586"
    INDEX 01 13:18:33
  TRACK 587 AUDIO
    TITLE "TOEIC LR Kinnojyukugo_04_0587"
    INDEX 01 13:20:32
  TRACK 588 AUDIO
    TITLE "TOEIC LR Kinnojyukugo_04_0588"
    INDEX 01 13:20:71
  TRACK 589 AUDIO
    TITLE "TOEIC LR Kinnojyukugo_04_0589"
    INDEX 01 13:22:70
  TRACK 590 AUDIO
    TITLE "TOEIC LR Kinnojyukugo_04_0590"
    INDEX 01 13:23:22
  TRACK 591 AUDIO
    TITLE "TOEIC LR Kinnojyukugo_04_0591"
    INDEX 01 13:25:19
  TRACK 592 AUDIO
    TITLE "TOEIC LR Kinnojyukugo_04_0592"
    INDEX 01 13:26:21
  TRACK 593 AUDIO
    TITLE "TOEIC LR Kinnojyukugo_04_0593"
    INDEX 01 13:27:59
  TRACK 594 AUDIO
    TITLE "TOEIC LR Kinnojyukugo_04_0594"
    INDEX 01 13:28:27
  TRACK 595 AUDIO
    TITLE "TOEIC LR Kinnojyukugo_04_0595"
    INDEX 01 13:32:13
  TRACK 596 AUDIO
    TITLE "TOEIC LR Kinnojyukugo_04_0596"
    INDEX 01 13:32:53
  TRACK 597 AUDIO
    TITLE "TOEIC LR Kinnojyukugo_04_0597"
    INDEX 01 13:34:48
  TRACK 598 AUDIO
    TITLE "TOEIC LR Kinnojyukugo_04_0598"
    INDEX 01 13:35:10
  TRACK 599 AUDIO
    TITLE "TOEIC LR Kinnojyukugo_04_0599"
    INDEX 01 13:38:22
  TRACK 600 AUDIO
    TITLE "TOEIC LR Kinnojyukugo_04_0600"
    INDEX 01 13:38:47
  TRACK 601 AUDIO
    TITLE "TOEIC LR Kinnojyukugo_04_0601"
    INDEX 01 13:41:59
  TRACK 602 AUDIO
    TITLE "TOEIC LR Kinnojyukugo_04_0602"
    INDEX 01 13:42:61
  TRACK 603 AUDIO
    TITLE "TOEIC LR Kinnojyukugo_04_0603"
    INDEX 01 13:44:28
  TRACK 604 AUDIO
    TITLE "TOEIC LR Kinnojyukugo_04_0604"
    INDEX 01 13:44:68
  TRACK 605 AUDIO
    TITLE "TOEIC LR Kinnojyukugo_04_0605"
    INDEX 01 13:48:28
  TRACK 606 AUDIO
    TITLE "TOEIC LR Kinnojyukugo_04_0606"
    INDEX 01 13:48:65
  TRACK 607 AUDIO
    TITLE "TOEIC LR Kinnojyukugo_04_0607"
    INDEX 01 13:51:40
  TRACK 608 AUDIO
    TITLE "TOEIC LR Kinnojyukugo_04_0608"
    INDEX 01 13:52:04
  TRACK 609 AUDIO
    TITLE "TOEIC LR Kinnojyukugo_04_0609"
    INDEX 01 13:54:60
  TRACK 610 AUDIO
    TITLE "TOEIC LR Kinnojyukugo_04_0610"
    INDEX 01 13:55:11
  TRACK 611 AUDIO
    TITLE "TOEIC LR Kinnojyukugo_04_0611"
    INDEX 01 13:57:66
  TRACK 612 AUDIO
    TITLE "TOEIC LR Kinnojyukugo_04_0612"
    INDEX 01 13:58:66
  TRACK 613 AUDIO
    TITLE "TOEIC LR Kinnojyukugo_04_0613"
    INDEX 01 14:00:22
  TRACK 614 AUDIO
    TITLE "TOEIC LR Kinnojyukugo_04_0614"
    INDEX 01 14:00:61
  TRACK 615 AUDIO
    TITLE "TOEIC LR Kinnojyukugo_04_0615"
    INDEX 01 14:02:05
  TRACK 616 AUDIO
    TITLE "TOEIC LR Kinnojyukugo_04_0616"
    INDEX 01 14:02:42
  TRACK 617 AUDIO
    TITLE "TOEIC LR Kinnojyukugo_04_0617"
    INDEX 01 14:05:19
  TRACK 618 AUDIO
    TITLE "TOEIC LR Kinnojyukugo_04_0618"
    INDEX 01 14:05:60
  TRACK 619 AUDIO
    TITLE "TOEIC LR Kinnojyukugo_04_0619"
    INDEX 01 14:07:73
  TRACK 620 AUDIO
    TITLE "TOEIC LR Kinnojyukugo_04_0620"
    INDEX 01 14:08:25
  TRACK 621 AUDIO
    TITLE "TOEIC LR Kinnojyukugo_04_0621"
    INDEX 01 14:10:38
  TRACK 622 AUDIO
    TITLE "TOEIC LR Kinnojyukugo_04_0622"
    INDEX 01 14:11:37
  TRACK 623 AUDIO
    TITLE "TOEIC LR Kinnojyukugo_04_0623"
    INDEX 01 14:12:66
  TRACK 624 AUDIO
    TITLE "TOEIC LR Kinnojyukugo_04_0624"
    INDEX 01 14:13:28
  TRACK 625 AUDIO
    TITLE "TOEIC LR Kinnojyukugo_04_0625"
    INDEX 01 14:15:68
  TRACK 626 AUDIO
    TITLE "TOEIC LR Kinnojyukugo_04_0626"
    INDEX 01 14:16:30
  TRACK 627 AUDIO
    TITLE "TOEIC LR Kinnojyukugo_04_0627"
    INDEX 01 14:18:29
  TRACK 628 AUDIO
    TITLE "TOEIC LR Kinnojyukugo_04_0628"
    INDEX 01 14:18:68
  TRACK 629 AUDIO
    TITLE "TOEIC LR Kinnojyukugo_04_0629"
    INDEX 01 14:20:67
  TRACK 630 AUDIO
    TITLE "TOEIC LR Kinnojyukugo_04_0630"
    INDEX 01 14:21:18
  TRACK 631 AUDIO
    TITLE "TOEIC LR Kinnojyukugo_04_0631"
    INDEX 01 14:23:19
  TRACK 632 AUDIO
    TITLE "TOEIC LR Kinnojyukugo_04_0632"
    INDEX 01 14:24:18
  TRACK 633 AUDIO
    TITLE "TOEIC LR Kinnojyukugo_04_0633"
    INDEX 01 14:25:31
  TRACK 634 AUDIO
    TITLE "TOEIC LR Kinnojyukugo_04_0634"
    INDEX 01 14:25:70
  TRACK 635 AUDIO
    TITLE "TOEIC LR Kinnojyukugo_04_0635"
    INDEX 01 14:26:64
  TRACK 636 AUDIO
    TITLE "TOEIC LR Kinnojyukugo_04_0636"
    INDEX 01 14:27:28
  TRACK 637 AUDIO
    TITLE "TOEIC LR Kinnojyukugo_04_0637"
    INDEX 01 14:29:37
  TRACK 638 AUDIO
    TITLE "TOEIC LR Kinnojyukugo_04_0638"
    INDEX 01 14:29:74
  TRACK 639 AUDIO
    TITLE "TOEIC LR Kinnojyukugo_04_0639"
    INDEX 01 14:32:27
  TRACK 640 AUDIO
    TITLE "TOEIC LR Kinnojyukugo_04_0640"
    INDEX 01 14:32:55
  TRACK 641 AUDIO
    TITLE "TOEIC LR Kinnojyukugo_04_0641"
    INDEX 01 14:35:06
  TRACK 642 AUDIO
    TITLE "TOEIC LR Kinnojyukugo_04_0642"
    INDEX 01 14:36:04
  TRACK 643 AUDIO
    TITLE "TOEIC LR Kinnojyukugo_04_0643"
    INDEX 01 14:37:15
  TRACK 644 AUDIO
    TITLE "TOEIC LR Kinnojyukugo_04_0644"
    INDEX 01 14:37:50
  TRACK 645 AUDIO
    TITLE "TOEIC LR Kinnojyukugo_04_0645"
    INDEX 01 14:39:59
  TRACK 646 AUDIO
    TITLE "TOEIC LR Kinnojyukugo_04_0646"
    INDEX 01 14:40:23
  TRACK 647 AUDIO
    TITLE "TOEIC LR Kinnojyukugo_04_0647"
    INDEX 01 14:42:10
  TRACK 648 AUDIO
    TITLE "TOEIC LR Kinnojyukugo_04_0648"
    INDEX 01 14:42:49
  TRACK 649 AUDIO
    TITLE "TOEIC LR Kinnojyukugo_04_0649"
    INDEX 01 14:44:58
  TRACK 650 AUDIO
    TITLE "TOEIC LR Kinnojyukugo_04_0650"
    INDEX 01 14:45:14
  TRACK 651 AUDIO
    TITLE "TOEIC LR Kinnojyukugo_04_0651"
    INDEX 01 14:47:23
  TRACK 652 AUDIO
    TITLE "TOEIC LR Kinnojyukugo_04_0652"
    INDEX 01 14:48:32
  TRACK 653 AUDIO
    TITLE "TOEIC LR Kinnojyukugo_04_0653"
    INDEX 01 14:49:34
  TRACK 654 AUDIO
    TITLE "TOEIC LR Kinnojyukugo_04_0654"
    INDEX 01 14:49:73
  TRACK 655 AUDIO
    TITLE "TOEIC LR Kinnojyukugo_04_0655"
    INDEX 01 14:51:13
  TRACK 656 AUDIO
    TITLE "TOEIC LR Kinnojyukugo_04_0656"
    INDEX 01 14:51:50
  TRACK 657 AUDIO
    TITLE "TOEIC LR Kinnojyukugo_04_0657"
    INDEX 01 14:53:41
  TRACK 658 AUDIO
    TITLE "TOEIC LR Kinnojyukugo_04_0658"
    INDEX 01 14:54:07
  TRACK 659 AUDIO
    TITLE "TOEIC LR Kinnojyukugo_04_0659"
    INDEX 01 14:55:70
  TRACK 660 AUDIO
    TITLE "TOEIC LR Kinnojyukugo_04_0660"
    INDEX 01 14:56:26
  TRACK 661 AUDIO
    TITLE "TOEIC LR Kinnojyukugo_04_0661"
    INDEX 01 14:58:11
  TRACK 662 AUDIO
    TITLE "TOEIC LR Kinnojyukugo_04_0662"
    INDEX 01 14:59:13
  TRACK 663 AUDIO
    TITLE "TOEIC LR Kinnojyukugo_04_0663"
    INDEX 01 15:00:43
  TRACK 664 AUDIO
    TITLE "TOEIC LR Kinnojyukugo_04_0664"
    INDEX 01 15:01:08
  TRACK 665 AUDIO
    TITLE "TOEIC LR Kinnojyukugo_04_0665"
    INDEX 01 15:04:22
  TRACK 666 AUDIO
    TITLE "TOEIC LR Kinnojyukugo_04_0666"
    INDEX 01 15:04:65
  TRACK 667 AUDIO
    TITLE "TOEIC LR Kinnojyukugo_04_0667"
    INDEX 01 15:07:49
  TRACK 668 AUDIO
    TITLE "TOEIC LR Kinnojyukugo_04_0668"
    INDEX 01 15:08:12
  TRACK 669 AUDIO
    TITLE "TOEIC LR Kinnojyukugo_04_0669"
    INDEX 01 15:10:71
  TRACK 670 AUDIO
    TITLE "TOEIC LR Kinnojyukugo_04_0670"
    INDEX 01 15:11:20
  TRACK 671 AUDIO
    TITLE "TOEIC LR Kinnojyukugo_04_0671"
    INDEX 01 15:14:04
  TRACK 672 AUDIO
    TITLE "TOEIC LR Kinnojyukugo_04_0672"
    INDEX 01 15:15:04
  TRACK 673 AUDIO
    TITLE "TOEIC LR Kinnojyukugo_04_0673"
    INDEX 01 15:16:21
  TRACK 674 AUDIO
    TITLE "TOEIC LR Kinnojyukugo_04_0674"
    INDEX 01 15:16:68
  TRACK 675 AUDIO
    TITLE "TOEIC LR Kinnojyukugo_04_0675"
    INDEX 01 15:18:16
  TRACK 676 AUDIO
    TITLE "TOEIC LR Kinnojyukugo_04_0676"
    INDEX 01 15:18:61
  TRACK 677 AUDIO
    TITLE "TOEIC LR Kinnojyukugo_04_0677"
    INDEX 01 15:21:14
  TRACK 678 AUDIO
    TITLE "TOEIC LR Kinnojyukugo_04_0678"
    INDEX 01 15:21:49
  TRACK 679 AUDIO
    TITLE "TOEIC LR Kinnojyukugo_04_0679"
    INDEX 01 15:24:12
  TRACK 680 AUDIO
    TITLE "TOEIC LR Kinnojyukugo_04_0680"
    INDEX 01 15:24:34
  TRACK 681 AUDIO
    TITLE "TOEIC LR Kinnojyukugo_04_0681"
    INDEX 01 15:26:72
  TRACK 682 AUDIO
    TITLE "TOEIC LR Kinnojyukugo_04_0682"
    INDEX 01 15:28:01
  TRACK 683 AUDIO
    TITLE "TOEIC LR Kinnojyukugo_04_0683"
    INDEX 01 15:29:47
  TRACK 684 AUDIO
    TITLE "TOEIC LR Kinnojyukugo_04_0684"
    INDEX 01 15:30:09
  TRACK 685 AUDIO
    TITLE "TOEIC LR Kinnojyukugo_04_0685"
    INDEX 01 15:31:34
  TRACK 686 AUDIO
    TITLE "TOEIC LR Kinnojyukugo_04_0686"
    INDEX 01 15:31:73
  TRACK 687 AUDIO
    TITLE "TOEIC LR Kinnojyukugo_04_0687"
    INDEX 01 15:34:32
  TRACK 688 AUDIO
    TITLE "TOEIC LR Kinnojyukugo_04_0688"
    INDEX 01 15:34:72
  TRACK 689 AUDIO
    TITLE "TOEIC LR Kinnojyukugo_04_0689"
    INDEX 01 15:37:45
  TRACK 690 AUDIO
    TITLE "TOEIC LR Kinnojyukugo_04_0690"
    INDEX 01 15:37:70
  TRACK 691 AUDIO
    TITLE "TOEIC LR Kinnojyukugo_04_0691"
    INDEX 01 15:40:43
  TRACK 692 AUDIO
    TITLE "TOEIC LR Kinnojyukugo_04_0692"
    INDEX 01 15:41:42
  TRACK 693 AUDIO
    TITLE "TOEIC LR Kinnojyukugo_04_0693"
    INDEX 01 15:43:08
  TRACK 694 AUDIO
    TITLE "TOEIC LR Kinnojyukugo_04_0694"
    INDEX 01 15:43:45
  TRACK 695 AUDIO
    TITLE "TOEIC LR Kinnojyukugo_04_0695"
    INDEX 01 15:45:52
  TRACK 696 AUDIO
    TITLE "TOEIC LR Kinnojyukugo_04_0696"
    INDEX 01 15:46:14
  TRACK 697 AUDIO
    TITLE "TOEIC LR Kinnojyukugo_04_0697"
    INDEX 01 15:48:68
  TRACK 698 AUDIO
    TITLE "TOEIC LR Kinnojyukugo_04_0698"
    INDEX 01 15:49:32
  TRACK 699 AUDIO
    TITLE "TOEIC LR Kinnojyukugo_04_0699"
    INDEX 01 15:51:62
  TRACK 700 AUDIO
    TITLE "TOEIC LR Kinnojyukugo_04_0700"
    INDEX 01 15:52:13
  TRACK 701 AUDIO
    TITLE "TOEIC LR Kinnojyukugo_04_0701"
    INDEX 01 15:54:43
  TRACK 702 AUDIO
    TITLE "TOEIC LR Kinnojyukugo_04_0702"
    INDEX 01 15:55:42
  TRACK 703 AUDIO
    TITLE "TOEIC LR Kinnojyukugo_04_0703"
    INDEX 01 15:57:06
  TRACK 704 AUDIO
    TITLE "TOEIC LR Kinnojyukugo_04_0704"
    INDEX 01 15:57:43
  TRACK 705 AUDIO
    TITLE "TOEIC LR Kinnojyukugo_04_0705"
    INDEX 01 15:58:66
  TRACK 706 AUDIO
    TITLE "TOEIC LR Kinnojyukugo_04_0706"
    INDEX 01 15:59:30
  TRACK 707 AUDIO
    TITLE "TOEIC LR Kinnojyukugo_04_0707"
    INDEX 01 16:02:21
  TRACK 708 AUDIO
    TITLE "TOEIC LR Kinnojyukugo_04_0708"
    INDEX 01 16:02:62
  TRACK 709 AUDIO
    TITLE "TOEIC LR Kinnojyukugo_04_0709"
    INDEX 01 16:05:51
  TRACK 710 AUDIO
    TITLE "TOEIC LR Kinnojyukugo_04_0710"
    INDEX 01 16:06:01
  TRACK 711 AUDIO
    TITLE "TOEIC LR Kinnojyukugo_04_0711"
    INDEX 01 16:08:63
  TRACK 712 AUDIO
    TITLE "TOEIC LR Kinnojyukugo_04_0712"
    INDEX 01 16:09:66
  TRACK 713 AUDIO
    TITLE "TOEIC LR Kinnojyukugo_04_0713"
    INDEX 01 16:11:02
  TRACK 714 AUDIO
    TITLE "TOEIC LR Kinnojyukugo_04_0714"
    INDEX 01 16:11:53
  TRACK 715 AUDIO
    TITLE "TOEIC LR Kinnojyukugo_04_0715"
    INDEX 01 16:12:66
  TRACK 716 AUDIO
    TITLE "TOEIC LR Kinnojyukugo_04_0716"
    INDEX 01 16:13:33
  TRACK 717 AUDIO
    TITLE "TOEIC LR Kinnojyukugo_04_0717"
    INDEX 01 16:16:17
  TRACK 718 AUDIO
    TITLE "TOEIC LR Kinnojyukugo_04_0718"
    INDEX 01 16:16:60
  TRACK 719 AUDIO
    TITLE "TOEIC LR Kinnojyukugo_04_0719"
    INDEX 01 16:19:37
  TRACK 720 AUDIO
    TITLE "TOEIC LR Kinnojyukugo_04_0720"
    INDEX 01 16:19:63
  TRACK 721 AUDIO
    TITLE "TOEIC LR Kinnojyukugo_04_0721"
    INDEX 01 16:22:39
  TRACK 722 AUDIO
    TITLE "TOEIC LR Kinnojyukugo_04_0722"
    INDEX 01 16:23:41
  TRACK 723 AUDIO
    TITLE "TOEIC LR Kinnojyukugo_04_0723"
    INDEX 01 16:24:54
  TRACK 724 AUDIO
    TITLE "TOEIC LR Kinnojyukugo_04_0724"
    INDEX 01 16:25:14
  TRACK 725 AUDIO
    TITLE "TOEIC LR Kinnojyukugo_04_0725"
    INDEX 01 16:26:43
  TRACK 726 AUDIO
    TITLE "TOEIC LR Kinnojyukugo_04_0726"
    INDEX 01 16:27:07
  TRACK 727 AUDIO
    TITLE "TOEIC LR Kinnojyukugo_04_0727"
    INDEX 01 16:29:30
  TRACK 728 AUDIO
    TITLE "TOEIC LR Kinnojyukugo_04_0728"
    INDEX 01 16:29:67
  TRACK 729 AUDIO
    TITLE "TOEIC LR Kinnojyukugo_04_0729"
    INDEX 01 16:32:04
  TRACK 730 AUDIO
    TITLE "TOEIC LR Kinnojyukugo_04_0730"
    INDEX 01 16:32:30
  TRACK 731 AUDIO
    TITLE "TOEIC LR Kinnojyukugo_04_0731"
    INDEX 01 16:34:42
  TRACK 732 AUDIO
    TITLE "TOEIC LR Kinnojyukugo_04_0732"
    INDEX 01 16:35:42
  TRACK 733 AUDIO
    TITLE "TOEIC LR Kinnojyukugo_04_0733"
    INDEX 01 16:37:08
  TRACK 734 AUDIO
    TITLE "TOEIC LR Kinnojyukugo_04_0734"
    INDEX 01 16:37:45
  TRACK 735 AUDIO
    TITLE "TOEIC LR Kinnojyukugo_04_0735"
    INDEX 01 16:38:46
  TRACK 736 AUDIO
    TITLE "TOEIC LR Kinnojyukugo_04_0736"
    INDEX 01 16:39:16
  TRACK 737 AUDIO
    TITLE "TOEIC LR Kinnojyukugo_04_0737"
    INDEX 01 16:41:19
  TRACK 738 AUDIO
    TITLE "TOEIC LR Kinnojyukugo_04_0738"
    INDEX 01 16:41:58
  TRACK 739 AUDIO
    TITLE "TOEIC LR Kinnojyukugo_04_0739"
    INDEX 01 16:44:02
  TRACK 740 AUDIO
    TITLE "TOEIC LR Kinnojyukugo_04_0740"
    INDEX 01 16:44:25
  TRACK 741 AUDIO
    TITLE "TOEIC LR Kinnojyukugo_04_0741"
    INDEX 01 16:46:44
  TRACK 742 AUDIO
    TITLE "TOEIC LR Kinnojyukugo_04_0742"
    INDEX 01 16:47:45
  TRACK 743 AUDIO
    TITLE "TOEIC LR Kinnojyukugo_04_0743"
    INDEX 01 16:49:09
  TRACK 744 AUDIO
    TITLE "TOEIC LR Kinnojyukugo_04_0744"
    INDEX 01 16:49:48
  TRACK 745 AUDIO
    TITLE "TOEIC LR Kinnojyukugo_04_0745"
    INDEX 01 16:51:10
  TRACK 746 AUDIO
    TITLE "TOEIC LR Kinnojyukugo_04_0746"
    INDEX 01 16:51:51
  TRACK 747 AUDIO
    TITLE "TOEIC LR Kinnojyukugo_04_0747"
    INDEX 01 16:55:29
  TRACK 748 AUDIO
    TITLE "TOEIC LR Kinnojyukugo_04_0748"
    INDEX 01 16:55:74
  TRACK 749 AUDIO
    TITLE "TOEIC LR Kinnojyukugo_04_0749"
    INDEX 01 16:58:63
  TRACK 750 AUDIO
    TITLE "TOEIC LR Kinnojyukugo_04_0750"
    INDEX 01 16:59:19
  TRACK 751 AUDIO
    TITLE "TOEIC LR Kinnojyukugo_04_0751"
    INDEX 01 17:02:07
  TRACK 752 AUDIO
    TITLE "TOEIC LR Kinnojyukugo_04_0752"
    INDEX 01 17:03:09
  TRACK 753 AUDIO
    TITLE "TOEIC LR Kinnojyukugo_04_0753"
    INDEX 01 17:04:22
  TRACK 754 AUDIO
    TITLE "TOEIC LR Kinnojyukugo_04_0754"
    INDEX 01 17:04:59
  TRACK 755 AUDIO
    TITLE "TOEIC LR Kinnojyukugo_04_0755"
    INDEX 01 17:06:68
  TRACK 756 AUDIO
    TITLE "TOEIC LR Kinnojyukugo_04_0756"
    INDEX 01 17:07:32
  TRACK 757 AUDIO
    TITLE "TOEIC LR Kinnojyukugo_04_0757"
    INDEX 01 17:09:13
  TRACK 758 AUDIO
    TITLE "TOEIC LR Kinnojyukugo_04_0758"
    INDEX 01 17:09:53
  TRACK 759 AUDIO
    TITLE "TOEIC LR Kinnojyukugo_04_0759"
    INDEX 01 17:11:52
  TRACK 760 AUDIO
    TITLE "TOEIC LR Kinnojyukugo_04_0760"
    INDEX 01 17:11:75
  TRACK 761 AUDIO
    TITLE "TOEIC LR Kinnojyukugo_04_0761"
    INDEX 01 17:14:01
  TRACK 762 AUDIO
    TITLE "TOEIC LR Kinnojyukugo_04_0762"
    INDEX 01 17:15:02
  TRACK 763 AUDIO
    TITLE "TOEIC LR Kinnojyukugo_04_0763"
    INDEX 01 17:16:66
  TRACK 764 AUDIO
    TITLE "TOEIC LR Kinnojyukugo_04_0764"
    INDEX 01 17:17:29
  TRACK 765 AUDIO
    TITLE "TOEIC LR Kinnojyukugo_04_0765"
    INDEX 01 17:19:71
  TRACK 766 AUDIO
    TITLE "TOEIC LR Kinnojyukugo_04_0766"
    INDEX 01 17:20:35
  TRACK 767 AUDIO
    TITLE "TOEIC LR Kinnojyukugo_04_0767"
    INDEX 01 17:23:43
  TRACK 768 AUDIO
    TITLE "TOEIC LR Kinnojyukugo_04_0768"
    INDEX 01 17:24:07
  TRACK 769 AUDIO
    TITLE "TOEIC LR Kinnojyukugo_04_0769"
    INDEX 01 17:26:63
  TRACK 770 AUDIO
    TITLE "TOEIC LR Kinnojyukugo_04_0770"
    INDEX 01 17:27:13
  TRACK 771 AUDIO
    TITLE "TOEIC LR Kinnojyukugo_04_0771"
    INDEX 01 17:29:67
  TRACK 772 AUDIO
    TITLE "TOEIC LR Kinnojyukugo_04_0772"
    INDEX 01 17:30:67
  TRACK 773 AUDIO
    TITLE "TOEIC LR Kinnojyukugo_04_0773"
    INDEX 01 17:32:28
  TRACK 774 AUDIO
    TITLE "TOEIC LR Kinnojyukugo_04_0774"
    INDEX 01 17:32:73
  TRACK 775 AUDIO
    TITLE "TOEIC LR Kinnojyukugo_04_0775"
    INDEX 01 17:35:60
  TRACK 776 AUDIO
    TITLE "TOEIC LR Kinnojyukugo_04_0776"
    INDEX 01 17:36:24
  TRACK 777 AUDIO
    TITLE "TOEIC LR Kinnojyukugo_04_0777"
    INDEX 01 17:39:28
  TRACK 778 AUDIO
    TITLE "TOEIC LR Kinnojyukugo_04_0778"
    INDEX 01 17:39:65
  TRACK 779 AUDIO
    TITLE "TOEIC LR Kinnojyukugo_04_0779"
    INDEX 01 17:41:70
  TRACK 780 AUDIO
    TITLE "TOEIC LR Kinnojyukugo_04_0780"
    INDEX 01 17:42:23
  TRACK 781 AUDIO
    TITLE "TOEIC LR Kinnojyukugo_04_0781"
    INDEX 01 17:44:27
  TRACK 782 AUDIO
    TITLE "TOEIC LR Kinnojyukugo_04_0782"
    INDEX 01 17:45:31
  TRACK 783 AUDIO
    TITLE "TOEIC LR Kinnojyukugo_04_0783"
    INDEX 01 17:46:50
  TRACK 784 AUDIO
    TITLE "TOEIC LR Kinnojyukugo_04_0784"
    INDEX 01 17:47:14
  TRACK 785 AUDIO
    TITLE "TOEIC LR Kinnojyukugo_04_0785"
    INDEX 01 17:49:42
  TRACK 786 AUDIO
    TITLE "TOEIC LR Kinnojyukugo_04_0786"
    INDEX 01 17:50:06
  TRACK 787 AUDIO
    TITLE "TOEIC LR Kinnojyukugo_04_0787"
    INDEX 01 17:52:33
  TRACK 788 AUDIO
    TITLE "TOEIC LR Kinnojyukugo_04_0788"
    INDEX 01 17:52:72
  TRACK 789 AUDIO
    TITLE "TOEIC LR Kinnojyukugo_04_0789"
    INDEX 01 17:54:63
  TRACK 790 AUDIO
    TITLE "TOEIC LR Kinnojyukugo_04_0790"
    INDEX 01 17:55:14
  TRACK 791 AUDIO
    TITLE "TOEIC LR Kinnojyukugo_04_0791"
    INDEX 01 17:57:03
  TRACK 792 AUDIO
    TITLE "TOEIC LR Kinnojyukugo_04_0792"
    INDEX 01 17:58:02
  TRACK 793 AUDIO
    TITLE "TOEIC LR Kinnojyukugo_04_0793"
    INDEX 01 17:59:25
  TRACK 794 AUDIO
    TITLE "TOEIC LR Kinnojyukugo_04_0794"
    INDEX 01 17:59:62
  TRACK 795 AUDIO
    TITLE "TOEIC LR Kinnojyukugo_04_0795"
    INDEX 01 18:04:24
  TRACK 796 AUDIO
    TITLE "TOEIC LR Kinnojyukugo_04_0796"
    INDEX 01 18:04:61
  TRACK 797 AUDIO
    TITLE "TOEIC LR Kinnojyukugo_04_0797"
    INDEX 01 18:07:30
  TRACK 798 AUDIO
    TITLE "TOEIC LR Kinnojyukugo_04_0798"
    INDEX 01 18:07:72
  TRACK 799 AUDIO
    TITLE "TOEIC LR Kinnojyukugo_04_0799"
    INDEX 01 18:10:58
  TRACK 800 AUDIO
    TITLE "TOEIC LR Kinnojyukugo_04_0800"
    INDEX 01 18:11:07
  TRACK 801 AUDIO
    TITLE "TOEIC LR Kinnojyukugo_04_0801"
    INDEX 01 18:13:70
  TRACK 802 AUDIO
    TITLE "TOEIC LR Kinnojyukugo_04_0802"
    INDEX 01 18:14:70
  TRACK 803 AUDIO
    TITLE "TOEIC LR Kinnojyukugo_04_0803"
    INDEX 01 18:16:24
  TRACK 804 AUDIO
    TITLE "TOEIC LR Kinnojyukugo_04_0804"
    INDEX 01 18:16:61
  TRACK 805 AUDIO
    TITLE "TOEIC LR Kinnojyukugo_04_0805"
    INDEX 01 18:19:51
  TRACK 806 AUDIO
    TITLE "TOEIC LR Kinnojyukugo_04_0806"
    INDEX 01 18:20:23
  TRACK 807 AUDIO
    TITLE "TOEIC LR Kinnojyukugo_04_0807"
    INDEX 01 18:22:30
  TRACK 808 AUDIO
    TITLE "TOEIC LR Kinnojyukugo_04_0808"
    INDEX 01 18:22:69
  TRACK 809 AUDIO
    TITLE "TOEIC LR Kinnojyukugo_04_0809"
    INDEX 01 18:25:01
  TRACK 810 AUDIO
    TITLE "TOEIC LR Kinnojyukugo_04_0810"
    INDEX 01 18:25:28
  TRACK 811 AUDIO
    TITLE "TOEIC LR Kinnojyukugo_04_0811"
    INDEX 01 18:27:33
  TRACK 812 AUDIO
    TITLE "TOEIC LR Kinnojyukugo_04_0812"
    INDEX 01 18:28:38
  TRACK 813 AUDIO
    TITLE "TOEIC LR Kinnojyukugo_04_0813"
    INDEX 01 18:29:71
  TRACK 814 AUDIO
    TITLE "TOEIC LR Kinnojyukugo_04_0814"
    INDEX 01 18:30:35
  TRACK 815 AUDIO
    TITLE "TOEIC LR Kinnojyukugo_04_0815"
    INDEX 01 18:31:41
  TRACK 816 AUDIO
    TITLE "TOEIC LR Kinnojyukugo_04_0816"
    INDEX 01 18:32:05
  TRACK 817 AUDIO
    TITLE "TOEIC LR Kinnojyukugo_04_0817"
    INDEX 01 18:33:71
  TRACK 818 AUDIO
    TITLE "TOEIC LR Kinnojyukugo_04_0818"
    INDEX 01 18:34:35
  TRACK 819 AUDIO
    TITLE "TOEIC LR Kinnojyukugo_04_0819"
    INDEX 01 18:36:30
  TRACK 820 AUDIO
    TITLE "TOEIC LR Kinnojyukugo_04_0820"
    INDEX 01 18:36:58
  TRACK 821 AUDIO
    TITLE "TOEIC LR Kinnojyukugo_04_0821"
    INDEX 01 18:38:51
  TRACK 822 AUDIO
    TITLE "TOEIC LR Kinnojyukugo_04_0822"
    INDEX 01 18:39:50
  TRACK 823 AUDIO
    TITLE "TOEIC LR Kinnojyukugo_04_0823"
    INDEX 01 18:41:08
  TRACK 824 AUDIO
    TITLE "TOEIC LR Kinnojyukugo_04_0824"
    INDEX 01 18:41:47
  TRACK 825 AUDIO
    TITLE "TOEIC LR Kinnojyukugo_04_0825"
    INDEX 01 18:42:72
  TRACK 826 AUDIO
    TITLE "TOEIC LR Kinnojyukugo_04_0826"
    INDEX 01 18:43:36
  TRACK 827 AUDIO
    TITLE "TOEIC LR Kinnojyukugo_04_0827"
    INDEX 01 18:46:27
  TRACK 828 AUDIO
    TITLE "TOEIC LR Kinnojyukugo_04_0828"
    INDEX 01 18:46:66
  TRACK 829 AUDIO
    TITLE "TOEIC LR Kinnojyukugo_04_0829"
    INDEX 01 18:49:33
  TRACK 830 AUDIO
    TITLE "TOEIC LR Kinnojyukugo_04_0830"
    INDEX 01 18:49:58
  TRACK 831 AUDIO
    TITLE "TOEIC LR Kinnojyukugo_04_0831"
    INDEX 01 18:52:25
  TRACK 832 AUDIO
    TITLE "TOEIC LR Kinnojyukugo_04_0832"
    INDEX 01 18:53:27
  TRACK 833 AUDIO
    TITLE "TOEIC LR Kinnojyukugo_04_0833"
    INDEX 01 18:54:44
  TRACK 834 AUDIO
    TITLE "TOEIC LR Kinnojyukugo_04_0834"
    INDEX 01 18:55:08
  TRACK 835 AUDIO
    TITLE "TOEIC LR Kinnojyukugo_04_0835"
    INDEX 01 18:58:10
  TRACK 836 AUDIO
    TITLE "TOEIC LR Kinnojyukugo_04_0836"
    INDEX 01 18:58:51
  TRACK 837 AUDIO
    TITLE "TOEIC LR Kinnojyukugo_04_0837"
    INDEX 01 19:02:08
  TRACK 838 AUDIO
    TITLE "TOEIC LR Kinnojyukugo_04_0838"
    INDEX 01 19:02:45
  TRACK 839 AUDIO
    TITLE "TOEIC LR Kinnojyukugo_04_0839"
    INDEX 01 19:05:30
  TRACK 840 AUDIO
    TITLE "TOEIC LR Kinnojyukugo_04_0840"
    INDEX 01 19:05:57
  TRACK 841 AUDIO
    TITLE "TOEIC LR Kinnojyukugo_04_0841"
    INDEX 01 19:08:38
  TRACK 842 AUDIO
    TITLE "TOEIC LR Kinnojyukugo_04_0842"
    INDEX 01 19:09:39
  TRACK 843 AUDIO
    TITLE "TOEIC LR Kinnojyukugo_04_0843"
    INDEX 01 19:10:62
  TRACK 844 AUDIO
    TITLE "TOEIC LR Kinnojyukugo_04_0844"
    INDEX 01 19:11:25
  TRACK 845 AUDIO
    TITLE "TOEIC LR Kinnojyukugo_04_0845"
    INDEX 01 19:12:53
  TRACK 846 AUDIO
    TITLE "TOEIC LR Kinnojyukugo_04_0846"
    INDEX 01 19:13:18
  TRACK 847 AUDIO
    TITLE "TOEIC LR Kinnojyukugo_04_0847"
    INDEX 01 19:15:73
  TRACK 848 AUDIO
    TITLE "TOEIC LR Kinnojyukugo_04_0848"
    INDEX 01 19:16:37
  TRACK 849 AUDIO
    TITLE "TOEIC LR Kinnojyukugo_04_0849"
    INDEX 01 19:18:74
  TRACK 850 AUDIO
    TITLE "TOEIC LR Kinnojyukugo_04_0850"
    INDEX 01 19:19:22
  TRACK 851 AUDIO
    TITLE "TOEIC LR Kinnojyukugo_04_0851"
    INDEX 01 19:21:58
  TRACK 852 AUDIO
    TITLE "TOEIC LR Kinnojyukugo_04_0852"
    INDEX 01 19:22:58
  TRACK 853 AUDIO
    TITLE "TOEIC LR Kinnojyukugo_04_0853"
    INDEX 01 19:24:33
  TRACK 854 AUDIO
    TITLE "TOEIC LR Kinnojyukugo_04_0854"
    INDEX 01 19:24:74
  TRACK 855 AUDIO
    TITLE "TOEIC LR Kinnojyukugo_04_0855"
    INDEX 01 19:28:03
  TRACK 856 AUDIO
    TITLE "TOEIC LR Kinnojyukugo_04_0856"
    INDEX 01 19:28:43
  TRACK 857 AUDIO
    TITLE "TOEIC LR Kinnojyukugo_04_0857"
    INDEX 01 19:32:37
  TRACK 858 AUDIO
    TITLE "TOEIC LR Kinnojyukugo_04_0858"
    INDEX 01 19:33:05
  TRACK 859 AUDIO
    TITLE "TOEIC LR Kinnojyukugo_04_0859"
    INDEX 01 19:35:09
  TRACK 860 AUDIO
    TITLE "TOEIC LR Kinnojyukugo_04_0860"
    INDEX 01 19:35:35
  TRACK 861 AUDIO
    TITLE "TOEIC LR Kinnojyukugo_04_0861"
    INDEX 01 19:37:38
  TRACK 862 AUDIO
    TITLE "TOEIC LR Kinnojyukugo_04_0862"
    INDEX 01 19:38:41
  TRACK 863 AUDIO
    TITLE "TOEIC LR Kinnojyukugo_04_0863"
    INDEX 01 19:40:05
  TRACK 864 AUDIO
    TITLE "TOEIC LR Kinnojyukugo_04_0864"
    INDEX 01 19:40:42
  TRACK 865 AUDIO
    TITLE "TOEIC LR Kinnojyukugo_04_0865"
    INDEX 01 19:41:63
  TRACK 866 AUDIO
    TITLE "TOEIC LR Kinnojyukugo_04_0866"
    INDEX 01 19:42:29
  TRACK 867 AUDIO
    TITLE "TOEIC LR Kinnojyukugo_04_0867"
    INDEX 01 19:45:06
  TRACK 868 AUDIO
    TITLE "TOEIC LR Kinnojyukugo_04_0868"
    INDEX 01 19:45:45
  TRACK 869 AUDIO
    TITLE "TOEIC LR Kinnojyukugo_04_0869"
    INDEX 01 19:48:18
  TRACK 870 AUDIO
    TITLE "TOEIC LR Kinnojyukugo_04_0870"
    INDEX 01 19:48:43
  TRACK 871 AUDIO
    TITLE "TOEIC LR Kinnojyukugo_04_0871"
    INDEX 01 19:51:16
  TRACK 872 AUDIO
    TITLE "TOEIC LR Kinnojyukugo_04_0872"
    INDEX 01 19:52:16
  TRACK 873 AUDIO
    TITLE "TOEIC LR Kinnojyukugo_04_0873"
    INDEX 01 19:53:35
  TRACK 874 AUDIO
    TITLE "TOEIC LR Kinnojyukugo_04_0874"
    INDEX 01 19:53:72
  TRACK 875 AUDIO
    TITLE "TOEIC LR Kinnojyukugo_04_0875"
    INDEX 01 19:56:25
  TRACK 876 AUDIO
    TITLE "TOEIC LR Kinnojyukugo_04_0876"
    INDEX 01 19:56:64
  TRACK 877 AUDIO
    TITLE "TOEIC LR Kinnojyukugo_04_0877"
    INDEX 01 19:59:12
  TRACK 878 AUDIO
    TITLE "TOEIC LR Kinnojyukugo_04_0878"
    INDEX 01 19:59:51
  TRACK 879 AUDIO
    TITLE "TOEIC LR Kinnojyukugo_04_0879"
    INDEX 01 20:02:26
  TRACK 880 AUDIO
    TITLE "TOEIC LR Kinnojyukugo_04_0880"
    INDEX 01 20:02:49
  TRACK 881 AUDIO
    TITLE "TOEIC LR Kinnojyukugo_04_0881"
    INDEX 01 20:05:26
  TRACK 882 AUDIO
    TITLE "TOEIC LR Kinnojyukugo_04_0882"
    INDEX 01 20:06:26
  TRACK 883 AUDIO
    TITLE "TOEIC LR Kinnojyukugo_04_0883"
    INDEX 01 20:07:41
  TRACK 884 AUDIO
    TITLE "TOEIC LR Kinnojyukugo_04_0884"
    INDEX 01 20:08:07
  TRACK 885 AUDIO
    TITLE "TOEIC LR Kinnojyukugo_04_0885"
    INDEX 01 20:10:59
  TRACK 886 AUDIO
    TITLE "TOEIC LR Kinnojyukugo_04_0886"
    INDEX 01 20:11:23
  TRACK 887 AUDIO
    TITLE "TOEIC LR Kinnojyukugo_04_0887"
    INDEX 01 20:13:18
  TRACK 888 AUDIO
    TITLE "TOEIC LR Kinnojyukugo_04_0888"
    INDEX 01 20:13:55
  TRACK 889 AUDIO
    TITLE "TOEIC LR Kinnojyukugo_04_0889"
    INDEX 01 20:15:46
  TRACK 890 AUDIO
    TITLE "TOEIC LR Kinnojyukugo_04_0890"
    INDEX 01 20:16:01
  TRACK 891 AUDIO
    TITLE "TOEIC LR Kinnojyukugo_04_0891"
    INDEX 01 20:17:69
  TRACK 892 AUDIO
    TITLE "TOEIC LR Kinnojyukugo_04_0892"
    INDEX 01 20:18:70
  TRACK 893 AUDIO
    TITLE "TOEIC LR Kinnojyukugo_04_0893"
    INDEX 01 20:20:12
  TRACK 894 AUDIO
    TITLE "TOEIC LR Kinnojyukugo_04_0894"
    INDEX 01 20:20:51
  TRACK 895 AUDIO
    TITLE "TOEIC LR Kinnojyukugo_04_0895"
    INDEX 01 20:21:74
  TRACK 896 AUDIO
    TITLE "TOEIC LR Kinnojyukugo_04_0896"
    INDEX 01 20:22:34
  TRACK 897 AUDIO
    TITLE "TOEIC LR Kinnojyukugo_04_0897"
    INDEX 01 20:25:11
  TRACK 898 AUDIO
    TITLE "TOEIC LR Kinnojyukugo_04_0898"
    INDEX 01 20:25:50
  TRACK 899 AUDIO
    TITLE "TOEIC LR Kinnojyukugo_04_0899"
    INDEX 01 20:28:15
  TRACK 900 AUDIO
    TITLE "TOEIC LR Kinnojyukugo_04_0900"
    INDEX 01 20:28:43
  TRACK 901 AUDIO
    TITLE "TOEIC LR Kinnojyukugo_04_0901"
    INDEX 01 20:31:08
  TRACK 902 AUDIO
    TITLE "TOEIC LR Kinnojyukugo_04_0902"
    INDEX 01 20:32:11
  TRACK 903 AUDIO
    TITLE "TOEIC LR Kinnojyukugo_04_0903"
    INDEX 01 20:33:26
  TRACK 904 AUDIO
    TITLE "TOEIC LR Kinnojyukugo_04_0904"
    INDEX 01 20:33:62
  TRACK 905 AUDIO
    TITLE "TOEIC LR Kinnojyukugo_04_0905"
    INDEX 01 20:35:74
  TRACK 906 AUDIO
    TITLE "TOEIC LR Kinnojyukugo_04_0906"
    INDEX 01 20:36:40
  TRACK 907 AUDIO
    TITLE "TOEIC LR Kinnojyukugo_04_0907"
    INDEX 01 20:39:33
  TRACK 908 AUDIO
    TITLE "TOEIC LR Kinnojyukugo_04_0908"
    INDEX 01 20:39:72
  TRACK 909 AUDIO
    TITLE "TOEIC LR Kinnojyukugo_04_0909"
    INDEX 01 20:42:16
  TRACK 910 AUDIO
    TITLE "TOEIC LR Kinnojyukugo_04_0910"
    INDEX 01 20:42:43
  TRACK 911 AUDIO
    TITLE "TOEIC LR Kinnojyukugo_04_0911"
    INDEX 01 20:44:61
  TRACK 912 AUDIO
    TITLE "TOEIC LR Kinnojyukugo_04_0912"
    INDEX 01 20:45:61
  TRACK 913 AUDIO
    TITLE "TOEIC LR Kinnojyukugo_04_0913"
    INDEX 01 20:47:03
  TRACK 914 AUDIO
    TITLE "TOEIC LR Kinnojyukugo_04_0914"
    INDEX 01 20:47:42
  TRACK 915 AUDIO
    TITLE "TOEIC LR Kinnojyukugo_04_0915"
    INDEX 01 20:48:48
  TRACK 916 AUDIO
    TITLE "TOEIC LR Kinnojyukugo_04_0916"
    INDEX 01 20:49:12
  TRACK 917 AUDIO
    TITLE "TOEIC LR Kinnojyukugo_04_0917"
    INDEX 01 20:52:24
  TRACK 918 AUDIO
    TITLE "TOEIC LR Kinnojyukugo_04_0918"
    INDEX 01 20:52:63
  TRACK 919 AUDIO
    TITLE "TOEIC LR Kinnojyukugo_04_0919"
    INDEX 01 20:55:08
  TRACK 920 AUDIO
    TITLE "TOEIC LR Kinnojyukugo_04_0920"
    INDEX 01 20:55:32
  TRACK 921 AUDIO
    TITLE "TOEIC LR Kinnojyukugo_04_0921"
    INDEX 01 20:57:52
  TRACK 922 AUDIO
    TITLE "TOEIC LR Kinnojyukugo_04_0922"
    INDEX 01 20:58:52
  TRACK 923 AUDIO
    TITLE "TOEIC LR Kinnojyukugo_04_0923"
    INDEX 01 21:00:06
  TRACK 924 AUDIO
    TITLE "TOEIC LR Kinnojyukugo_04_0924"
    INDEX 01 21:00:43
  TRACK 925 AUDIO
    TITLE "TOEIC LR Kinnojyukugo_04_0925"
    INDEX 01 21:02:05
  TRACK 926 AUDIO
    TITLE "TOEIC LR Kinnojyukugo_04_0926"
    INDEX 01 21:02:42
  TRACK 927 AUDIO
    TITLE "TOEIC LR Kinnojyukugo_04_0927"
    INDEX 01 21:05:05
  TRACK 928 AUDIO
    TITLE "TOEIC LR Kinnojyukugo_04_0928"
    INDEX 01 21:05:44
  TRACK 929 AUDIO
    TITLE "TOEIC LR Kinnojyukugo_04_0929"
    INDEX 01 21:08:07
  TRACK 930 AUDIO
    TITLE "TOEIC LR Kinnojyukugo_04_0930"
    INDEX 01 21:08:33
  TRACK 931 AUDIO
    TITLE "TOEIC LR Kinnojyukugo_04_0931"
    INDEX 01 21:10:69
  TRACK 932 AUDIO
    TITLE "TOEIC LR Kinnojyukugo_04_0932"
    INDEX 01 21:11:70
  TRACK 933 AUDIO
    TITLE "TOEIC LR Kinnojyukugo_04_0933"
    INDEX 01 21:13:26
  TRACK 934 AUDIO
    TITLE "TOEIC LR Kinnojyukugo_04_0934"
    INDEX 01 21:13:65
  TRACK 935 AUDIO
    TITLE "TOEIC LR Kinnojyukugo_04_0935"
    INDEX 01 21:18:45
  TRACK 936 AUDIO
    TITLE "TOEIC LR Kinnojyukugo_04_0936"
    INDEX 01 21:19:13
  TRACK 937 AUDIO
    TITLE "TOEIC LR Kinnojyukugo_04_0937"
    INDEX 01 21:23:32
  TRACK 938 AUDIO
    TITLE "TOEIC LR Kinnojyukugo_04_0938"
    INDEX 01 21:23:69
  TRACK 939 AUDIO
    TITLE "TOEIC LR Kinnojyukugo_04_0939"
    INDEX 01 21:27:61
  TRACK 940 AUDIO
    TITLE "TOEIC LR Kinnojyukugo_04_0940"
    INDEX 01 21:28:10
  TRACK 941 AUDIO
    TITLE "TOEIC LR Kinnojyukugo_04_0941"
    INDEX 01 21:31:75
  TRACK 942 AUDIO
    TITLE "TOEIC LR Kinnojyukugo_04_0942"
    INDEX 01 21:32:74
  TRACK 943 AUDIO
    TITLE "TOEIC LR Kinnojyukugo_04_0943"
    INDEX 01 21:34:22
  TRACK 944 AUDIO
    TITLE "TOEIC LR Kinnojyukugo_04_0944"
    INDEX 01 21:34:59
  TRACK 945 AUDIO
    TITLE "TOEIC LR Kinnojyukugo_04_0945"
    INDEX 01 21:35:63
  TRACK 946 AUDIO
    TITLE "TOEIC LR Kinnojyukugo_04_0946"
    INDEX 01 21:36:25
  TRACK 947 AUDIO
    TITLE "TOEIC LR Kinnojyukugo_04_0947"
    INDEX 01 21:39:10
  TRACK 948 AUDIO
    TITLE "TOEIC LR Kinnojyukugo_04_0948"
    INDEX 01 21:39:51
  TRACK 949 AUDIO
    TITLE "TOEIC LR Kinnojyukugo_04_0949"
    INDEX 01 21:42:16
  TRACK 950 AUDIO
    TITLE "TOEIC LR Kinnojyukugo_04_0950"
    INDEX 01 21:42:45
  TRACK 951 AUDIO
    TITLE "TOEIC LR Kinnojyukugo_04_0951"
    INDEX 01 21:45:10
  TRACK 952 AUDIO
    TITLE "TOEIC LR Kinnojyukugo_04_0952"
    INDEX 01 21:46:12
  TRACK 953 AUDIO
    TITLE "TOEIC LR Kinnojyukugo_04_0953"
    INDEX 01 21:47:31
  TRACK 954 AUDIO
    TITLE "TOEIC LR Kinnojyukugo_04_0954"
    INDEX 01 21:47:74
  TRACK 955 AUDIO
    TITLE "TOEIC LR Kinnojyukugo_04_0955"
    INDEX 01 21:49:08
  TRACK 956 AUDIO
    TITLE "TOEIC LR Kinnojyukugo_04_0956"
    INDEX 01 21:49:47
  TRACK 957 AUDIO
    TITLE "TOEIC LR Kinnojyukugo_04_0957"
    INDEX 01 21:51:30
  TRACK 958 AUDIO
    TITLE "TOEIC LR Kinnojyukugo_04_0958"
    INDEX 01 21:51:68
  TRACK 959 AUDIO
    TITLE "TOEIC LR Kinnojyukugo_04_0959"
    INDEX 01 21:54:19
  TRACK 960 AUDIO
    TITLE "TOEIC LR Kinnojyukugo_04_0960"
    INDEX 01 21:54:42
  TRACK 961 AUDIO
    TITLE "TOEIC LR Kinnojyukugo_04_0961"
    INDEX 01 21:56:69
  TRACK 962 AUDIO
    TITLE "TOEIC LR Kinnojyukugo_04_0962"
    INDEX 01 21:57:68
  TRACK 963 AUDIO
    TITLE "TOEIC LR Kinnojyukugo_04_0963"
    INDEX 01 21:59:16
  TRACK 964 AUDIO
    TITLE "TOEIC LR Kinnojyukugo_04_0964"
    INDEX 01 21:59:57
  TRACK 965 AUDIO
    TITLE "TOEIC LR Kinnojyukugo_04_0965"
    INDEX 01 22:02:62
  TRACK 966 AUDIO
    TITLE "TOEIC LR Kinnojyukugo_04_0966"
    INDEX 01 22:03:26
  TRACK 967 AUDIO
    TITLE "TOEIC LR Kinnojyukugo_04_0967"
    INDEX 01 22:05:25
  TRACK 968 AUDIO
    TITLE "TOEIC LR Kinnojyukugo_04_0968"
    INDEX 01 22:05:62
  TRACK 969 AUDIO
    TITLE "TOEIC LR Kinnojyukugo_04_0969"
    INDEX 01 22:07:55
  TRACK 970 AUDIO
    TITLE "TOEIC LR Kinnojyukugo_04_0970"
    INDEX 01 22:08:03
  TRACK 971 AUDIO
    TITLE "TOEIC LR Kinnojyukugo_04_0971"
    INDEX 01 22:09:70
  TRACK 972 AUDIO
    TITLE "TOEIC LR Kinnojyukugo_04_0972"
    INDEX 01 22:10:71
  TRACK 973 AUDIO
    TITLE "TOEIC LR Kinnojyukugo_04_0973"
    INDEX 01 22:12:09
  TRACK 974 AUDIO
    TITLE "TOEIC LR Kinnojyukugo_04_0974"
    INDEX 01 22:12:54
  TRACK 975 AUDIO
    TITLE "TOEIC LR Kinnojyukugo_04_0975"
    INDEX 01 22:15:74
  TRACK 976 AUDIO
    TITLE "TOEIC LR Kinnojyukugo_04_0976"
    INDEX 01 22:16:36
  TRACK 977 AUDIO
    TITLE "TOEIC LR Kinnojyukugo_04_0977"
    INDEX 01 22:19:21
  TRACK 978 AUDIO
    TITLE "TOEIC LR Kinnojyukugo_04_0978"
    INDEX 01 22:19:60
  TRACK 979 AUDIO
    TITLE "TOEIC LR Kinnojyukugo_04_0979"
    INDEX 01 22:22:13
  TRACK 980 AUDIO
    TITLE "TOEIC LR Kinnojyukugo_04_0980"
    INDEX 01 22:22:41
  TRACK 981 AUDIO
    TITLE "TOEIC LR Kinnojyukugo_04_0981"
    INDEX 01 22:24:65
  TRACK 982 AUDIO
    TITLE "TOEIC LR Kinnojyukugo_04_0982"
    INDEX 01 22:25:65
  TRACK 983 AUDIO
    TITLE "TOEIC LR Kinnojyukugo_04_0983"
    INDEX 01 22:27:15
  TRACK 984 AUDIO
    TITLE "TOEIC LR Kinnojyukugo_04_0984"
    INDEX 01 22:27:50
  TRACK 985 AUDIO
    TITLE "TOEIC LR Kinnojyukugo_04_0985"
    INDEX 01 22:29:45
  TRACK 986 AUDIO
    TITLE "TOEIC LR Kinnojyukugo_04_0986"
    INDEX 01 22:30:07
  TRACK 987 AUDIO
    TITLE "TOEIC LR Kinnojyukugo_04_0987"
    INDEX 01 22:33:25
  TRACK 988 AUDIO
    TITLE "TOEIC LR Kinnojyukugo_04_0988"
    INDEX 01 22:33:68
  TRACK 989 AUDIO
    TITLE "TOEIC LR Kinnojyukugo_04_0989"
    INDEX 01 22:36:06
  TRACK 990 AUDIO
    TITLE "TOEIC LR Kinnojyukugo_04_0990"
    INDEX 01 22:36:29
  TRACK 991 AUDIO
    TITLE "TOEIC LR Kinnojyukugo_04_0991"
    INDEX 01 22:38:44
  TRACK 992 AUDIO
    TITLE "TOEIC LR Kinnojyukugo_04_0992"
    INDEX 01 22:39:43
  TRACK 993 AUDIO
    TITLE "TOEIC LR Kinnojyukugo_04_0993"
    INDEX 01 22:41:01
  TRACK 994 AUDIO
    TITLE "TOEIC LR Kinnojyukugo_04_0994"
    INDEX 01 22:41:40
  TRACK 995 AUDIO
    TITLE "TOEIC LR Kinnojyukugo_04_0995"
    INDEX 01 22:42:75
  TRACK 996 AUDIO
    TITLE "TOEIC LR Kinnojyukugo_04_0996"
    INDEX 01 22:43:37
  TRACK 997 AUDIO
    TITLE "TOEIC LR Kinnojyukugo_04_0997"
    INDEX 01 22:45:50
  TRACK 998 AUDIO
    TITLE "TOEIC LR Kinnojyukugo_04_0998"
    INDEX 01 22:46:16
  TRACK 999 AUDIO
    TITLE "TOEIC LR Kinnojyukugo_04_0999"
    INDEX 01 22:48:28
  TRACK 1000 AUDIO
    TITLE "TOEIC LR Kinnojyukugo_04_1000"
    INDEX 01 22:48:52
  TRACK 1001 AUDIO
    TITLE "TOEIC LR Kinnojyukugo_04_1001"
    INDEX 01 22:50:67
